<svg width="770" height="304" viewBox="0 0 770 304" fill="none" xmlns="http://www.w3.org/2000/svg">
<g clip-path="url(#clip0_39_74)">
<path fill-rule="evenodd" clip-rule="evenodd" d="M400.491 -154.283C375.576 -139.322 341.63 -111.134 336.752 -57.177C332.5 -10.147 365.461 33.9105 403.869 49.6549C271.48 17.2185 91.0945 90.059 86.6306 228.578C84.0893 265.556 107.884 296.684 129.276 324.669L129.301 324.7C130.297 326.003 131.286 327.298 132.269 328.587C187.139 387.867 275.068 412.386 352.555 389.964C377.535 382.541 401.729 371.754 424.109 358.033C410.167 369.606 399.122 383.828 392.388 400.651C378.841 430.251 390.775 464.649 414.602 484.772C418.057 488.054 421.737 490.966 425.582 493.606C413.721 488.942 402.454 485.737 393.517 483.683C370.456 478.36 334.776 474.932 299.54 493.362C264.304 511.791 259.425 567.078 263.336 594.057C267.247 621.035 293.694 646.965 333.809 659.265C373.923 671.564 417.021 672.573 446.371 659.265C475.721 645.957 511.965 613.172 499.225 563.005C493.514 540.516 478.065 523.717 459.893 511.367C464.755 513.526 469.605 515.688 474.351 518.001C478.071 519.822 482.508 522.244 487.4 524.914L487.402 524.915L487.403 524.915C499.846 531.707 515.238 540.109 529.301 544.334C565.135 553.895 603.81 535.248 636.425 519.524C638.34 518.601 640.235 517.688 642.106 516.791C663.755 505.5 675.689 481.667 681.132 458.398C705.36 327.205 539.637 291.75 446.081 343.174C456.354 335.532 466.113 327.226 475.237 318.304C523.133 272.695 545.388 183.815 529.785 151.917C527.032 144.842 523.771 137.975 520.028 131.37C520.428 131.989 520.818 132.614 521.198 133.246C523.064 136.34 524.664 139.589 526.263 142.838L526.264 142.839C528.395 147.171 530.528 151.503 533.293 155.466C534.433 157.132 535.714 158.697 537.123 160.143C540.782 163.931 545.152 166.96 549.983 169.056C552.04 169.943 554.136 170.709 556.232 171.475C556.567 171.599 556.899 171.722 557.231 171.846C558.864 172.453 560.484 173.056 562.159 173.492C563.905 173.941 565.666 174.313 567.424 174.684C568.508 174.913 569.59 175.141 570.665 175.387C580.372 177.601 590.301 178.697 600.257 178.653C605.378 178.653 610.498 178.331 615.577 177.685C618.139 177.322 620.682 176.838 623.198 176.234C623.336 176.203 623.477 176.173 623.618 176.145L623.894 176.088C624.77 175.91 625.659 175.729 626.423 175.347C627.229 174.903 628.076 174.58 628.963 174.298C633.472 172.964 637.845 171.209 642.025 169.056C645.169 167.443 648.193 165.668 651.136 163.652C658.086 158.997 664.24 153.25 669.359 146.634C670.69 144.9 671.899 143.085 673.028 141.23C678.229 132.479 681.252 122.64 681.898 112.477C682.301 106.388 681.978 100.017 680.245 94.1692C679.642 92.193 678.997 90.2299 678.309 88.2816C677.208 85.3093 675.97 82.3893 674.601 79.5307C674.187 78.6624 673.757 77.8019 673.31 76.9498C669.48 69.6104 664.723 62.7952 659.2 56.6252C653.676 50.4587 647.374 45.0364 640.453 40.4946C636.985 38.2363 633.397 36.1797 629.648 34.4053C628.539 33.8764 627.443 33.3235 626.345 32.7705C623.931 31.553 621.515 30.3354 618.964 29.3645C614.368 27.6304 609.651 26.34 604.773 25.5335C602.435 25.1705 600.097 24.8882 597.758 24.7269C596.67 24.606 595.621 24.5656 594.532 24.6463C594.275 24.6649 594.025 24.7169 593.781 24.768C593.49 24.8293 593.205 24.8882 592.92 24.8882C592.114 24.8479 591.267 24.7673 590.461 24.606C587.034 24.2834 583.567 24.606 580.22 25.5738C578.723 25.9759 577.251 26.4682 575.813 27.048C577.918 25.544 579.966 23.9627 581.954 22.3073C623.157 -12.0509 609.41 -89.5181 593.727 -115.045C578.044 -140.572 518.577 -180.777 472.778 -173.922C426.979 -167.066 416.537 -163.921 400.491 -154.283V-154.283ZM506.275 111.097C484.89 84.449 455.395 65.9313 421.865 54.8214C459.87 61.2659 518.206 58.0359 560.165 36.5232C559.162 37.2778 558.165 38.0401 557.168 38.8025C552.699 42.2178 548.233 45.6324 543.291 48.318C539.611 50.3203 535.73 51.8698 531.857 53.4154L531.854 53.4169H531.853C529.958 54.1738 528.064 54.9292 526.197 55.7373C520.512 58.1972 514.828 61.1814 510.554 65.6979C505.152 71.4243 501.967 79.4089 501.362 87.2323C501.154 89.543 501.208 91.8698 501.523 94.1684C501.564 94.612 501.604 95.0556 501.604 95.4992C501.644 96.5074 501.725 97.5155 501.846 98.5237C502.007 99.8948 502.289 101.226 502.652 102.556C503.056 103.806 503.499 105.057 504.064 106.266C504.708 107.918 505.446 109.531 506.275 111.097Z" fill="#DBEEFE"/>
</g>
<defs>
<clipPath id="clip0_39_74">
<rect width="770" height="304" fill="white"/>
</clipPath>
</defs>
</svg>
