<svg width="20" height="20" viewBox="0 0 20 20" fill="none" xmlns="http://www.w3.org/2000/svg">
<g clip-path="url(#clip0_497_359)">
<path d="M16.4284 7.14293C16.4284 10.7001 9.99986 19.2858 9.99986 19.2858C9.99986 19.2858 3.57129 10.7001 3.57129 7.14293C3.57129 5.43796 4.24858 3.80283 5.45417 2.59724C6.65976 1.39165 8.2949 0.714355 9.99986 0.714355C11.7048 0.714355 13.34 1.39165 14.5455 2.59724C15.7511 3.80283 16.4284 5.43796 16.4284 7.14293V7.14293Z" stroke="#000001" stroke-width="2" stroke-linecap="round" stroke-linejoin="round"/>
<path d="M10.0003 9.28571C11.1837 9.28571 12.1431 8.32632 12.1431 7.14286C12.1431 5.95939 11.1837 5 10.0003 5C8.81681 5 7.85742 5.95939 7.85742 7.14286C7.85742 8.32632 8.81681 9.28571 10.0003 9.28571Z" stroke="#000001" stroke-width="2" stroke-linecap="round" stroke-linejoin="round"/>
</g>
<defs>
<clipPath id="clip0_497_359">
<rect width="20" height="20" fill="white"/>
</clipPath>
</defs>
</svg>
