<svg width="520" height="381" viewBox="0 0 520 381" fill="none" xmlns="http://www.w3.org/2000/svg">
<path d="M222.794 240.005L221.838 245.312L220.82 251.014L211.468 303.012H196.184L205.525 251.014L206.553 245.312L207.509 240.005H222.794Z" fill="#DBEEFE"/>
<path d="M220.58 240.005C219.77 245.274 218.908 250.533 218.035 255.783L215.333 271.551L212.507 287.291L211.052 295.151L209.535 303.012L210.782 295.113L212.081 287.225L214.814 271.466L217.64 255.726C218.565 250.477 219.541 245.236 220.58 240.005Z" fill="#C7C7C7"/>
<path d="M221.838 245.312L220.82 251.014H205.525L206.553 245.312H221.838Z" fill="#C7C7C7"/>
<path d="M298.27 240.005L299.226 245.312L300.244 251.014L309.595 303.012H324.88L315.539 251.014L314.51 245.312L313.554 240.005H298.27Z" fill="#DBEEFE"/>
<path d="M300.535 240.005C301.335 245.274 302.208 250.533 303.081 255.783L305.772 271.551L308.598 287.291L310.063 295.151L311.58 303.012L310.333 295.113L309.034 287.225L306.333 271.466L303.507 255.726C302.54 250.477 301.564 245.236 300.535 240.005Z" fill="#C7C7C7"/>
<path d="M299.226 245.312H314.51L315.539 251.014H300.244L299.226 245.312Z" fill="#C7C7C7"/>
<path d="M222.233 225.378H210.117L211.624 215.124H220.726L222.233 225.378Z" fill="#C7C7C7"/>
<path d="M227.305 209.598C228.389 204.026 224.289 198.711 218.146 197.728C212.003 196.744 206.144 200.464 205.06 206.036C203.976 211.608 208.077 216.922 214.219 217.906C220.362 218.889 226.221 215.17 227.305 209.598Z" fill="#E4F2FE"/>
<path d="M224.536 209.6C225.631 205.411 222.774 201.21 218.156 200.218C213.538 199.225 208.908 201.817 207.814 206.005C206.72 210.194 209.576 214.394 214.194 215.387C218.812 216.379 223.442 213.788 224.536 209.6Z" fill="white"/>
<path d="M223.355 207.347C223.275 206.419 222.984 205.515 222.502 204.692C222.019 203.87 221.354 203.147 220.549 202.569C219.738 201.998 218.808 201.582 217.815 201.347C216.822 201.112 215.787 201.063 214.772 201.202C213.765 201.346 212.802 201.681 211.946 202.184C211.091 202.687 210.361 203.348 209.805 204.124C209.219 204.953 208.835 205.887 208.679 206.863C208.523 207.838 208.599 208.832 208.901 209.779C209.418 211.414 210.623 212.799 212.258 213.634C213.852 214.455 215.723 214.716 217.515 214.369C219.249 214.033 220.804 213.168 221.921 211.918C223.024 210.684 223.661 209.161 223.739 207.573C223.739 207.507 223.739 207.442 223.666 207.442C223.594 207.442 223.594 207.498 223.594 207.573C223.554 208.216 223.418 208.85 223.188 209.458C222.949 210.056 222.631 210.626 222.243 211.155C221.833 211.668 221.359 212.136 220.83 212.55C220.286 212.962 219.689 213.313 219.053 213.596C218.138 213.987 217.144 214.201 216.133 214.223C215.122 214.246 214.117 214.077 213.182 213.728C212.245 213.368 211.404 212.827 210.719 212.144C210.034 211.46 209.52 210.65 209.213 209.769C208.898 208.865 208.801 207.909 208.931 206.967C209.06 206.025 209.411 205.12 209.961 204.312C210.493 203.546 211.199 202.893 212.032 202.395C212.866 201.898 213.807 201.568 214.793 201.428C216.125 201.236 217.489 201.374 218.742 201.827C219.994 202.28 221.089 203.031 221.91 204.001C222.305 204.502 222.627 205.047 222.866 205.622C223.098 206.207 223.251 206.814 223.323 207.432C223.323 207.432 223.355 207.376 223.355 207.347Z" fill="#DBEEFE"/>
<path d="M222.347 207.357C222.272 206.562 222.018 205.789 221.6 205.086C221.182 204.384 220.608 203.768 219.915 203.276C219.22 202.791 218.426 202.437 217.579 202.233C216.732 202.029 215.848 201.98 214.98 202.088C214.112 202.206 213.281 202.488 212.541 202.917C211.802 203.346 211.17 203.911 210.689 204.576C210.176 205.287 209.837 206.088 209.693 206.927C209.55 207.765 209.606 208.622 209.857 209.44C210.072 210.148 210.44 210.81 210.939 211.387C211.439 211.965 212.06 212.447 212.767 212.804C214.154 213.525 215.789 213.746 217.349 213.427C218.853 213.132 220.2 212.377 221.162 211.287C222.115 210.214 222.665 208.893 222.731 207.517C222.731 207.461 222.731 207.404 222.669 207.404C222.606 207.404 222.586 207.451 222.586 207.517C222.501 208.622 222.092 209.686 221.401 210.599C220.711 211.512 219.764 212.241 218.658 212.71C217.872 213.057 217.013 213.249 216.138 213.272C215.264 213.294 214.395 213.148 213.588 212.842C212.776 212.531 212.048 212.062 211.456 211.47C210.864 210.877 210.421 210.175 210.159 209.412C209.889 208.628 209.811 207.801 209.929 206.987C210.048 206.173 210.36 205.392 210.844 204.699C211.302 204.045 211.911 203.489 212.628 203.069C213.346 202.649 214.155 202.376 215.001 202.267C216.132 202.115 217.287 202.237 218.349 202.621C219.412 203.005 220.343 203.637 221.048 204.454C221.387 204.879 221.666 205.342 221.879 205.83C222.074 206.331 222.21 206.849 222.284 207.376L222.347 207.357Z" fill="#DBEEFE"/>
<path d="M221.339 207.366C221.264 206.703 221.041 206.062 220.684 205.48C220.327 204.898 219.842 204.389 219.261 203.982C218.093 203.177 216.623 202.818 215.167 202.983C214.438 203.071 213.738 203.297 213.113 203.648C212.488 203.999 211.952 204.466 211.541 205.019C211.096 205.616 210.798 206.293 210.667 207.004C210.536 207.714 210.576 208.442 210.782 209.138C210.957 209.744 211.265 210.313 211.688 210.808C212.112 211.304 212.641 211.717 213.245 212.022C214.436 212.626 215.832 212.807 217.162 212.531C218.444 212.261 219.583 211.594 220.383 210.646C221.175 209.736 221.639 208.627 221.713 207.47C221.713 207.413 221.713 207.366 221.64 207.366C221.628 207.367 221.616 207.37 221.605 207.376C221.594 207.381 221.585 207.389 221.577 207.397C221.569 207.406 221.564 207.416 221.56 207.427C221.557 207.438 221.556 207.449 221.557 207.46C221.476 208.388 221.129 209.28 220.549 210.047C219.969 210.815 219.177 211.43 218.253 211.833C217.591 212.13 216.866 212.295 216.128 212.318C215.39 212.341 214.655 212.221 213.972 211.965C213.282 211.707 212.664 211.312 212.163 210.81C211.661 210.308 211.289 209.711 211.073 209.062C210.858 208.402 210.802 207.708 210.91 207.026C211.017 206.345 211.286 205.692 211.697 205.113C212.089 204.574 212.605 204.118 213.209 203.777C213.813 203.435 214.492 203.216 215.198 203.134C216.132 203.034 217.079 203.134 217.962 203.426C218.852 203.732 219.632 204.254 220.217 204.934C220.506 205.281 220.744 205.662 220.923 206.065C221.098 206.479 221.22 206.909 221.287 207.347C221.287 207.347 221.349 207.375 221.339 207.366Z" fill="#DBEEFE"/>
<path d="M220.341 207.376C220.189 206.313 219.58 205.348 218.648 204.69C217.715 204.057 216.554 203.767 215.396 203.879C214.806 203.941 214.238 204.115 213.728 204.39C213.218 204.664 212.777 205.033 212.434 205.472C212.062 205.956 211.808 206.507 211.69 207.087C211.572 207.667 211.592 208.264 211.749 208.837C211.886 209.341 212.137 209.814 212.486 210.225C212.835 210.637 213.273 210.98 213.775 211.231C214.762 211.726 215.918 211.871 217.016 211.636C218.061 211.407 218.988 210.861 219.645 210.09C220.271 209.337 220.633 208.431 220.684 207.489C220.686 207.479 220.685 207.469 220.682 207.459C220.679 207.449 220.674 207.44 220.668 207.433C220.661 207.425 220.652 207.418 220.643 207.413C220.633 207.408 220.623 207.405 220.612 207.404C220.612 207.404 220.539 207.404 220.528 207.479C220.466 208.226 220.195 208.946 219.74 209.571C219.286 210.196 218.663 210.706 217.931 211.051C217.396 211.305 216.806 211.45 216.204 211.476C215.601 211.502 214.999 211.409 214.44 211.202C213.873 210.99 213.366 210.665 212.958 210.25C212.549 209.836 212.25 209.343 212.081 208.808C211.915 208.272 211.879 207.71 211.975 207.159C212.072 206.609 212.3 206.085 212.642 205.623C212.963 205.197 213.382 204.839 213.87 204.574C214.358 204.309 214.903 204.143 215.468 204.086C216.207 204.026 216.952 204.112 217.65 204.341C218.352 204.576 218.972 204.976 219.448 205.5C219.676 205.777 219.868 206.078 220.019 206.395C220.167 206.726 220.275 207.071 220.341 207.423V207.376Z" fill="#DBEEFE"/>
<path d="M310.686 225.378H298.561L300.067 215.124H309.18L310.686 225.378Z" fill="#C7C7C7"/>
<path d="M315.977 208.702C316.912 203.101 312.665 197.872 306.489 197.023C300.314 196.174 294.549 200.027 293.614 205.629C292.678 211.231 296.926 216.46 303.101 217.308C309.276 218.157 315.041 214.304 315.977 208.702Z" fill="#E4F2FE"/>
<path d="M313.111 208.973C313.826 204.717 310.603 200.741 305.911 200.092C301.22 199.443 296.837 202.367 296.121 206.623C295.406 210.878 298.629 214.854 303.32 215.503C308.012 216.152 312.395 213.228 313.111 208.973Z" fill="white"/>
<path d="M311.808 207.347C311.727 206.419 311.435 205.516 310.953 204.694C310.47 203.872 309.807 203.148 309.003 202.569C308.192 201.998 307.262 201.583 306.269 201.348C305.276 201.113 304.241 201.064 303.226 201.202C302.218 201.346 301.256 201.681 300.4 202.184C299.544 202.687 298.815 203.348 298.259 204.124C297.668 204.952 297.281 205.886 297.125 206.862C296.969 207.838 297.048 208.833 297.355 209.779C297.867 211.416 299.074 212.802 300.711 213.634C302.305 214.456 304.176 214.717 305.969 214.369C307.703 214.033 309.258 213.168 310.374 211.918C311.477 210.684 312.115 209.161 312.193 207.573C312.193 207.507 312.193 207.442 312.12 207.442C312.047 207.442 312.047 207.498 312.037 207.573C311.996 208.215 311.863 208.848 311.642 209.458C311.404 210.058 311.083 210.628 310.686 211.155C309.874 212.205 308.774 213.046 307.496 213.596C306.584 213.99 305.591 214.205 304.582 214.227C303.572 214.25 302.568 214.08 301.636 213.728C300.697 213.368 299.855 212.828 299.168 212.145C298.481 211.461 297.965 210.651 297.657 209.769C297.343 208.864 297.248 207.908 297.379 206.966C297.51 206.024 297.863 205.119 298.415 204.312C298.946 203.546 299.653 202.893 300.486 202.395C301.32 201.898 302.261 201.568 303.247 201.428C304.578 201.236 305.943 201.374 307.195 201.827C308.448 202.28 309.543 203.031 310.364 204.001C310.755 204.504 311.076 205.048 311.32 205.622C311.548 206.207 311.698 206.815 311.767 207.432C311.767 207.432 311.808 207.376 311.808 207.347Z" fill="#DBEEFE"/>
<path d="M310.801 207.357C310.721 206.563 310.465 205.791 310.047 205.09C309.629 204.388 309.058 203.771 308.369 203.276C307.674 202.791 306.88 202.437 306.033 202.233C305.186 202.029 304.302 201.98 303.434 202.088C302.564 202.204 301.731 202.486 300.989 202.915C300.248 203.344 299.615 203.91 299.132 204.576C298.62 205.287 298.28 206.088 298.137 206.927C297.993 207.765 298.049 208.622 298.301 209.44C298.515 210.148 298.883 210.81 299.383 211.387C299.882 211.965 300.503 212.447 301.21 212.804C302.599 213.523 304.233 213.745 305.792 213.427C307.301 213.134 308.651 212.379 309.616 211.287C310.565 210.212 311.114 208.892 311.185 207.517C311.185 207.461 311.185 207.404 311.112 207.404C311.04 207.404 311.04 207.451 311.029 207.517C310.946 208.621 310.539 209.685 309.851 210.598C309.162 211.511 308.216 212.24 307.112 212.71C306.325 213.057 305.467 213.249 304.592 213.272C303.718 213.294 302.848 213.148 302.041 212.842C301.227 212.532 300.497 212.065 299.903 211.472C299.309 210.879 298.865 210.176 298.602 209.412C298.336 208.627 298.26 207.801 298.378 206.987C298.496 206.174 298.807 205.394 299.288 204.699C299.748 204.047 300.357 203.492 301.074 203.072C301.791 202.653 302.599 202.378 303.444 202.267C304.578 202.11 305.738 202.23 306.805 202.614C307.871 202.999 308.806 203.634 309.512 204.454C309.855 204.877 310.135 205.34 310.343 205.83C310.548 206.328 310.684 206.847 310.749 207.376C310.758 207.376 310.768 207.374 310.777 207.371C310.786 207.368 310.794 207.363 310.801 207.357Z" fill="#DBEEFE"/>
<path d="M309.793 207.366C309.713 206.705 309.488 206.065 309.131 205.483C308.774 204.902 308.293 204.392 307.715 203.983C306.545 203.179 305.077 202.82 303.621 202.983C302.896 203.073 302.199 203.301 301.578 203.652C300.957 204.003 300.424 204.469 300.015 205.019C299.571 205.617 299.273 206.293 299.14 207.003C299.008 207.714 299.044 208.441 299.246 209.138C299.426 209.744 299.737 210.311 300.162 210.806C300.587 211.302 301.116 211.715 301.719 212.022C302.907 212.625 304.299 212.807 305.626 212.531C306.911 212.261 308.053 211.594 308.857 210.646C309.652 209.738 310.113 208.627 310.177 207.47C310.177 207.413 310.177 207.366 310.115 207.366C310.102 207.367 310.09 207.371 310.08 207.376C310.069 207.381 310.059 207.389 310.051 207.398C310.044 207.406 310.038 207.416 310.035 207.427C310.031 207.438 310.03 207.449 310.032 207.46C309.949 208.387 309.6 209.279 309.021 210.046C308.441 210.813 307.651 211.429 306.727 211.834C306.065 212.13 305.341 212.296 304.603 212.318C303.865 212.341 303.129 212.221 302.447 211.966C301.756 211.707 301.138 211.312 300.637 210.81C300.136 210.308 299.764 209.711 299.548 209.063C299.332 208.402 299.277 207.708 299.384 207.026C299.492 206.345 299.76 205.692 300.171 205.114C300.56 204.574 301.074 204.117 301.677 203.776C302.279 203.434 302.957 203.215 303.662 203.134C304.599 203.034 305.55 203.134 306.436 203.426C307.326 203.732 308.106 204.254 308.691 204.934C308.981 205.282 309.218 205.662 309.398 206.065C309.563 206.482 309.685 206.911 309.761 207.347C309.769 207.356 309.78 207.363 309.793 207.366Z" fill="#DBEEFE"/>
<path d="M308.785 207.375C308.713 206.849 308.527 206.341 308.239 205.88C307.95 205.419 307.563 205.014 307.101 204.689C306.169 204.057 305.007 203.768 303.849 203.879C303.259 203.937 302.689 204.109 302.178 204.384C301.667 204.659 301.227 205.029 300.888 205.471C300.516 205.956 300.262 206.506 300.144 207.087C300.025 207.667 300.045 208.263 300.202 208.836C300.34 209.34 300.591 209.813 300.94 210.225C301.288 210.637 301.727 210.979 302.228 211.23C303.212 211.725 304.365 211.87 305.46 211.635C306.506 211.404 307.436 210.859 308.099 210.09C308.724 209.336 309.086 208.43 309.138 207.488C309.141 207.479 309.142 207.469 309.14 207.46C309.139 207.45 309.135 207.441 309.129 207.433C309.123 207.425 309.115 207.418 309.106 207.413C309.097 207.408 309.086 207.405 309.076 207.404C309.054 207.404 309.032 207.412 309.017 207.426C309.001 207.44 308.993 207.459 308.993 207.479C308.917 208.229 308.629 208.95 308.158 209.57C307.687 210.191 307.047 210.691 306.301 211.023C305.768 211.275 305.18 211.419 304.579 211.445C303.978 211.471 303.378 211.379 302.821 211.174C302.254 210.962 301.747 210.636 301.339 210.222C300.93 209.807 300.631 209.314 300.462 208.78C300.296 208.243 300.259 207.681 300.356 207.131C300.453 206.581 300.681 206.056 301.023 205.594C301.344 205.168 301.763 204.81 302.25 204.545C302.738 204.28 303.284 204.113 303.849 204.058C304.585 203.997 305.326 204.084 306.021 204.312C306.724 204.545 307.345 204.945 307.818 205.471C308.054 205.746 308.249 206.047 308.4 206.367C308.548 206.698 308.656 207.042 308.722 207.394C308.722 207.394 308.795 207.385 308.785 207.375Z" fill="#DBEEFE"/>
<path d="M336.693 220.156H184.359V246.584H336.693V220.156Z" fill="#E4F2FE"/>
<path d="M215.676 220.156L204.621 246.584H184.941L195.997 220.156H215.676Z" fill="#DBEEFE"/>
<path d="M256.002 220.156L244.946 246.584H225.267L236.322 220.156H256.002Z" fill="#DBEEFE"/>
<path d="M296.316 220.156L285.271 246.584H265.592L276.647 220.156H296.316Z" fill="#DBEEFE"/>
<path d="M336.652 220.156L325.597 246.584H305.917L316.973 220.156H336.652Z" fill="#DBEEFE"/>
<path d="M333.618 271.022H187.445V287.752H333.618V271.022Z" fill="#E4F2FE"/>
<path d="M217.484 271.022L206.886 287.742H188.006L198.615 271.022H217.484Z" fill="#DBEEFE"/>
<path d="M256.188 271.022L245.58 287.742H226.69L237.298 271.022H256.188Z" fill="#DBEEFE"/>
<path d="M294.872 271.022L284.264 287.742H265.384L275.993 271.022H294.872Z" fill="#DBEEFE"/>
<path d="M333.566 271.022L322.957 287.742H304.078L314.687 271.022H333.566Z" fill="#DBEEFE"/>
<path d="M486.836 94.2842H369.237C369.237 94.2842 380.895 65.3965 398.839 65.3965C416.783 65.3965 422.404 85.3304 422.404 85.3304C422.404 85.3304 434.509 74.501 444.463 74.501C454.417 74.501 463.052 88.8177 463.052 88.8177C463.052 88.8177 477.11 81.1174 486.836 94.2842Z" fill="#DBEEFE"/>
<path d="M171.662 26.5282H116.707C116.707 26.5282 128.978 10.3926 138.662 10.3926C148.346 10.3926 151.193 21.1465 151.193 21.1465C151.193 21.1465 158.02 16.1324 164.347 17.0278C170.675 17.9232 171.662 26.5282 171.662 26.5282Z" fill="#DBEEFE"/>
<path d="M468.112 142.73H413.157C413.157 142.73 425.438 126.594 435.112 126.594C444.785 126.594 447.643 137.348 447.643 137.348C447.643 137.348 454.469 132.325 460.797 133.229C467.125 134.134 468.112 142.73 468.112 142.73Z" fill="#DBEEFE"/>
<path d="M141.281 66.9711H34.228C34.228 66.9711 48.8889 37.2823 64.5681 35.4255C80.2473 33.5688 87.7492 57.4801 87.7492 57.4801C87.7492 57.4801 97.8694 48.9976 105.818 48.9976C113.767 48.9976 119.908 60.1285 119.908 60.1285C119.908 60.1285 135.846 52.532 141.281 66.9711Z" fill="#DBEEFE"/>
<path d="M38.0829 303.248L93.173 303.021L148.273 302.937L258.454 302.776L368.644 302.937L423.734 303.021L478.824 303.248L423.734 303.474L368.644 303.559L258.454 303.719L148.273 303.559L93.173 303.474L38.0829 303.248Z" fill="#263238"/>
<path d="M260.532 377.525C381.091 377.525 478.824 367.191 478.824 354.443C478.824 341.695 381.091 331.361 260.532 331.361C139.972 331.361 42.2389 341.695 42.2389 354.443C42.2389 367.191 139.972 377.525 260.532 377.525Z" fill="#DBEEFE"/>
<path d="M289.074 358.752C291.235 359.411 353.1 359.609 355.469 358.262C356.373 357.753 356.924 349.581 357.287 339.694C357.371 337.555 357.433 335.349 357.495 333.097L362.503 303.172L321.149 302.927L317.243 332.871L317.399 339.468C317.399 339.468 293.677 349.006 291.256 350.731C288.835 352.456 286.923 358.082 289.074 358.752Z" fill="#F6AE9E"/>
<path d="M289.074 358.751C291.235 359.411 353.1 359.609 355.469 358.261C356.56 357.639 357.163 345.707 357.495 333.106L317.243 332.879L317.399 339.477C317.399 339.477 293.677 349.015 291.256 350.74C288.835 352.465 286.923 358.082 289.074 358.751Z" fill="white"/>
<path d="M289.074 358.752C291.235 359.412 353.1 359.61 355.469 358.262C356.373 357.753 356.924 349.581 357.287 339.695L317.399 339.459C317.399 339.459 293.677 348.997 291.256 350.722C288.835 352.447 286.923 358.083 289.074 358.752Z" fill="#1D764A"/>
<path d="M289.978 356.508C300.368 356.31 342.2 356.395 352.466 356.914C352.549 356.914 352.549 356.97 352.466 356.98C342.19 357.375 300.337 356.98 289.968 356.659C289.749 356.65 289.76 356.508 289.978 356.508Z" fill="#263238"/>
<path d="M295.246 348.713C296.406 348.684 297.56 348.875 298.634 349.274C299.707 349.673 300.677 350.272 301.48 351.032C302.932 352.38 303.757 354.181 303.787 356.065C303.787 356.122 303.662 356.122 303.652 356.065C303.313 354.207 302.32 352.499 300.821 351.196C299.323 349.893 297.4 349.065 295.339 348.836C295.322 348.847 295.299 348.852 295.278 348.848C295.257 348.844 295.238 348.833 295.225 348.817C295.213 348.801 295.208 348.781 295.212 348.761C295.216 348.742 295.228 348.725 295.246 348.713Z" fill="#263238"/>
<path d="M313.377 340.382C317.534 340.382 322.334 341.692 324.901 344.774C325.004 344.896 324.817 345.019 324.693 344.962C321.055 343.226 317.223 341.845 313.263 340.844C313.196 340.83 313.137 340.792 313.1 340.739C313.063 340.686 313.051 340.622 313.066 340.561C313.081 340.5 313.122 340.446 313.181 340.413C313.239 340.379 313.31 340.368 313.377 340.382Z" fill="#263238"/>
<path d="M310.167 341.503C314.323 341.503 319.123 342.813 321.69 345.905C321.794 346.018 321.607 346.15 321.482 346.084C317.846 344.345 314.014 342.967 310.052 341.974C309.994 341.952 309.946 341.912 309.916 341.861C309.887 341.81 309.878 341.752 309.892 341.695C309.906 341.639 309.941 341.589 309.991 341.554C310.041 341.519 310.103 341.501 310.167 341.503Z" fill="#263238"/>
<path d="M306.956 342.635C311.112 342.588 315.913 343.935 318.49 347.027C318.583 347.14 318.396 347.272 318.271 347.215C314.638 345.469 310.806 344.088 306.842 343.097C306.774 343.083 306.716 343.045 306.679 342.992C306.642 342.939 306.629 342.875 306.645 342.814C306.66 342.752 306.701 342.699 306.759 342.666C306.818 342.632 306.889 342.621 306.956 342.635Z" fill="#263238"/>
<path d="M303.746 343.756C307.902 343.756 312.713 345.057 315.279 348.148C315.373 348.261 315.186 348.393 315.061 348.337C311.428 346.591 307.595 345.21 303.631 344.218C303.564 344.204 303.505 344.167 303.468 344.114C303.431 344.061 303.419 343.997 303.434 343.935C303.449 343.874 303.49 343.821 303.549 343.787C303.607 343.754 303.678 343.742 303.746 343.756Z" fill="#263238"/>
<path d="M349.89 347.969C354.555 347.969 354.513 354.566 349.89 354.566C345.266 354.566 345.193 347.941 349.89 347.969Z" fill="#263238"/>
<path d="M309.242 335.839C311.466 338.468 314.874 340.136 317.825 341.993C317.894 342.029 317.972 342.049 318.051 342.053C318.131 342.056 318.21 342.043 318.283 342.013C318.355 341.984 318.42 341.94 318.47 341.884C318.52 341.828 318.556 341.762 318.573 341.691C318.589 341.695 318.606 341.694 318.622 341.69C318.638 341.686 318.652 341.679 318.665 341.669C318.677 341.659 318.686 341.646 318.692 341.632C318.698 341.618 318.7 341.603 318.698 341.588C318.409 338.133 317.122 334.807 314.967 331.946C313.679 330.297 311.04 328.751 308.931 330.325C306.821 331.899 307.933 334.312 309.242 335.839ZM309.055 332.719C309.492 328.628 313.554 331.776 314.448 333.03C315.011 333.847 315.514 334.697 315.955 335.575C316.829 337.401 317.603 339.267 318.272 341.164C316.89 340.165 315.414 339.279 313.991 338.336C312.297 337.215 308.827 334.981 309.055 332.719Z" fill="#263238"/>
<path d="M333.452 339.232C333.14 336.772 330.044 336.235 327.862 336.602C324.124 337.313 320.657 338.899 317.804 341.202C317.789 341.21 317.776 341.222 317.768 341.236C317.759 341.25 317.755 341.266 317.755 341.282C317.755 341.298 317.759 341.314 317.768 341.328C317.776 341.342 317.789 341.353 317.804 341.362C317.76 341.423 317.733 341.492 317.725 341.564C317.717 341.636 317.728 341.709 317.758 341.777C317.787 341.844 317.834 341.904 317.895 341.952C317.955 341.999 318.027 342.033 318.105 342.05C321.659 342.559 325.379 343.511 329.005 342.992C331.124 342.728 333.753 341.56 333.452 339.232ZM323.674 341.824C321.918 341.616 320.194 341.324 318.479 341.173C320.443 340.278 322.355 339.288 324.412 338.6C325.401 338.244 326.414 337.948 327.446 337.714C329.046 337.385 334.387 337.658 331.602 340.881C329.971 342.653 325.763 342.059 323.674 341.824Z" fill="#263238"/>
<path d="M423.287 164.812C423.287 164.812 375.253 238.93 373.964 244.133C371.99 252.135 361.496 331.098 361.496 331.098L311.518 330.287C311.518 330.287 320.131 260.655 328.288 237.724C334.169 221.202 376.551 166.405 376.551 166.405L423.287 164.812Z" fill="#1D764A"/>
<path d="M316.079 323.332C323.259 323.285 348.695 323.031 358.244 323.832C358.263 323.832 358.281 323.839 358.295 323.851C358.309 323.864 358.316 323.88 358.316 323.898C358.316 323.915 358.309 323.932 358.295 323.945C358.281 323.957 358.263 323.964 358.244 323.964C354.96 324.388 323.259 323.719 316.079 323.511C316.064 323.516 316.047 323.517 316.031 323.515C316.015 323.513 315.999 323.507 315.986 323.498C315.973 323.49 315.962 323.478 315.954 323.465C315.947 323.452 315.943 323.437 315.943 323.422C315.943 323.407 315.947 323.392 315.954 323.379C315.962 323.366 315.973 323.354 315.986 323.346C315.999 323.337 316.015 323.331 316.031 323.329C316.047 323.326 316.064 323.328 316.079 323.332Z" fill="#263238"/>
<path d="M415.09 171.617C411.972 176.094 408.616 180.477 405.395 184.916C402.174 189.355 398.974 193.804 395.805 198.281C389.481 207.216 383.302 216.232 377.268 225.33C374.344 229.518 371.836 233.934 369.777 238.526C367.901 243.141 366.493 247.901 365.569 252.748C364.582 257.621 363.937 262.531 363.335 267.441C362.684 272.669 362.039 277.897 361.402 283.125C360.086 293.806 358.77 304.507 357.454 315.226C357.288 316.536 357.132 317.856 356.986 319.166C356.986 319.364 357.34 319.402 357.371 319.166C358.836 308.535 360.062 297.875 361.402 287.225L363.397 271.372C364.01 266.442 364.602 261.513 365.475 256.603C366.255 251.773 367.433 247.003 368.998 242.333C370.711 237.494 373.014 232.844 375.866 228.469C381.653 219.412 387.783 210.505 393.914 201.627C400.044 192.748 406.33 183.719 412.804 174.925C413.593 173.842 414.404 172.758 415.235 171.693C415.349 171.608 415.152 171.532 415.09 171.617Z" fill="#263238"/>
<path d="M380.822 364.981C383.097 365.113 444.484 350.438 446.396 348.591C446.48 348.479 446.53 348.349 446.541 348.214C446.78 346.386 443.642 339.553 441.44 330.797C441.304 330.241 440.151 327.583 438.53 323.992C434.073 314.143 426.124 297.215 426.124 297.215L386.048 306.546L400.803 333.455L402.798 339.779C402.798 339.779 382.526 354.491 380.676 356.744C378.827 358.996 378.557 364.83 380.822 364.981Z" fill="#F6AE9E"/>
<path d="M380.822 364.981C383.097 365.113 444.484 350.438 446.396 348.591C446.48 348.479 446.53 348.349 446.541 348.214C446.78 346.386 443.643 339.552 441.44 330.797C441.305 330.24 440.151 327.583 438.53 323.992L400.813 333.417L402.808 339.741C402.808 339.741 382.536 354.453 380.687 356.706C378.837 358.959 378.557 364.83 380.822 364.981Z" fill="white"/>
<path d="M380.822 364.971C383.097 365.122 444.484 350.438 446.396 348.59C447.123 347.893 445.534 340.362 441.44 330.796L402.808 339.787C402.808 339.787 382.536 354.481 380.687 356.752C378.837 359.024 378.557 364.83 380.822 364.971Z" fill="#1D764A"/>
<path d="M381.061 362.596C391.036 360.014 431.538 350.438 441.616 348.562C441.699 348.562 441.71 348.563 441.616 348.628C431.797 351.381 391.212 360.664 381.092 362.766C380.895 362.794 380.853 362.653 381.061 362.596Z" fill="#263238"/>
<path d="M383.98 353.85C385.089 353.56 386.251 353.482 387.394 353.622C388.537 353.761 389.636 354.115 390.62 354.66C392.399 355.631 393.7 357.182 394.257 358.996C394.257 359.052 394.153 359.081 394.132 358.996C393.277 357.272 391.828 355.846 390.003 354.934C388.178 354.021 386.075 353.67 384.012 353.935C384.005 353.944 383.996 353.95 383.985 353.955C383.975 353.959 383.963 353.961 383.951 353.959C383.94 353.958 383.929 353.954 383.92 353.947C383.911 353.94 383.904 353.931 383.901 353.921C383.897 353.911 383.896 353.9 383.899 353.89C383.902 353.88 383.908 353.87 383.916 353.863C383.924 353.856 383.935 353.85 383.946 353.848C383.958 353.846 383.969 353.846 383.98 353.85Z" fill="#263238"/>
<path d="M399.171 341.607C403.172 340.608 408.201 340.796 411.546 343.19C411.682 343.285 411.546 343.454 411.401 343.426C407.411 342.576 403.332 342.118 399.234 342.059C399.177 342.053 399.124 342.029 399.084 341.992C399.043 341.955 399.017 341.907 399.01 341.855C399.003 341.803 399.015 341.751 399.044 341.706C399.073 341.661 399.118 341.626 399.171 341.607Z" fill="#263238"/>
<path d="M396.387 343.435C400.387 342.436 405.416 342.625 408.762 345.018C408.897 345.113 408.762 345.282 408.606 345.254C404.614 344.422 400.535 343.983 396.439 343.944C396.364 343.95 396.29 343.929 396.233 343.886C396.175 343.843 396.139 343.781 396.132 343.713C396.125 343.646 396.148 343.578 396.196 343.526C396.244 343.474 396.312 343.441 396.387 343.435Z" fill="#263238"/>
<path d="M393.592 345.264C397.602 344.265 402.621 344.454 405.977 346.848C406.102 346.942 405.977 347.102 405.821 347.083C401.831 346.235 397.752 345.78 393.654 345.726C393.592 345.724 393.533 345.702 393.488 345.664C393.443 345.626 393.413 345.575 393.406 345.519C393.398 345.464 393.413 345.407 393.447 345.361C393.481 345.314 393.532 345.28 393.592 345.264Z" fill="#263238"/>
<path d="M390.807 347.082C394.807 346.093 399.836 346.281 403.182 348.675C403.317 348.769 403.182 348.93 403.037 348.901C399.045 348.062 394.966 347.611 390.869 347.554C390.801 347.561 390.731 347.543 390.677 347.505C390.622 347.466 390.587 347.409 390.579 347.346C390.57 347.284 390.59 347.221 390.633 347.171C390.675 347.122 390.738 347.09 390.807 347.082Z" fill="#263238"/>
<path d="M436.587 340.523C441.097 339.467 442.905 345.829 438.385 346.875C433.865 347.922 432.067 341.569 436.587 340.523Z" fill="#263238"/>
<path d="M393.893 338.167C396.792 340.193 400.553 340.994 403.92 342.135C403.997 342.154 404.078 342.157 404.156 342.142C404.235 342.128 404.308 342.097 404.371 342.052C404.434 342.007 404.484 341.949 404.517 341.883C404.551 341.818 404.567 341.745 404.564 341.673C404.581 341.673 404.598 341.669 404.613 341.661C404.628 341.654 404.64 341.643 404.65 341.63C404.659 341.617 404.664 341.602 404.666 341.586C404.667 341.571 404.664 341.555 404.657 341.541C403.408 338.26 401.23 335.335 398.34 333.058C396.636 331.767 393.644 330.872 392.044 332.889C390.443 334.906 392.21 336.989 393.893 338.167ZM392.854 335.198C392.127 331.136 396.937 333.256 398.153 334.255C398.93 334.913 399.655 335.618 400.325 336.367C401.689 337.926 402.962 339.549 404.138 341.23C402.517 340.589 400.844 340.08 399.202 339.486C397.228 338.789 393.249 337.432 392.844 335.198H392.854Z" fill="#263238"/>
<path d="M418.259 335.858C417.271 333.549 414.102 333.747 412.118 334.614C408.699 336.158 405.789 338.492 403.681 341.381C403.67 341.393 403.662 341.407 403.659 341.423C403.656 341.438 403.657 341.454 403.662 341.469C403.667 341.484 403.676 341.498 403.688 341.509C403.701 341.519 403.716 341.527 403.733 341.532C403.71 341.601 403.706 341.673 403.719 341.744C403.733 341.815 403.765 341.882 403.813 341.94C403.86 341.997 403.922 342.044 403.993 342.076C404.064 342.109 404.142 342.125 404.221 342.125C407.806 341.796 411.671 341.852 415.027 340.542C416.991 339.779 419.204 338.035 418.259 335.858ZM409.531 340.627C407.785 340.825 406.029 340.947 404.335 341.202C405.935 339.841 407.61 338.554 409.354 337.347C410.209 336.776 411.105 336.257 412.035 335.792C413.489 335.094 418.737 334.133 416.908 337.894C415.858 339.976 411.629 340.391 409.531 340.627Z" fill="#263238"/>
<path d="M398.059 331.692L442.967 321.004C442.967 321.004 399.971 244.256 400.366 238.959C400.678 234.247 431.86 193.078 433.616 185.368C436.431 172.748 429.657 161.476 423.09 154.501L376.645 166.377C376.645 166.377 380.344 173.663 387.139 178.262C387.139 178.262 357.952 222.465 357.204 237.018C356.456 251.57 398.059 331.692 398.059 331.692Z" fill="#1D764A"/>
<path d="M397.208 324.152C403.712 322.465 401.821 322.87 408.357 321.239C411.557 320.448 432.577 315.236 435.694 314.962C435.767 314.962 435.798 315.057 435.694 315.085C432.826 316.254 411.713 321.136 408.502 321.871C401.935 323.379 403.795 322.879 397.208 324.331C397.135 324.34 397.083 324.152 397.208 324.152Z" fill="#263238"/>
<path d="M379.939 176.593C384.389 178.091 388.689 179.933 392.792 182.097C392.825 182.112 392.85 182.139 392.861 182.171C392.873 182.202 392.87 182.237 392.854 182.267C392.837 182.297 392.808 182.32 392.773 182.331C392.738 182.341 392.7 182.339 392.667 182.324C388.334 180.608 383.908 178.968 379.689 177.046C379.631 177.012 379.589 176.959 379.571 176.899C379.553 176.839 379.56 176.774 379.591 176.718C379.622 176.662 379.674 176.619 379.738 176.596C379.803 176.572 379.874 176.572 379.939 176.593Z" fill="#263238"/>
<path d="M385.394 175.557C385.723 176.297 386.001 177.056 386.225 177.828C386.469 178.431 386.578 179.072 386.547 179.713C386.533 179.735 386.514 179.753 386.49 179.765C386.466 179.777 386.439 179.784 386.412 179.784C386.384 179.784 386.358 179.777 386.334 179.765C386.31 179.753 386.29 179.735 386.277 179.713C385.887 179.15 385.593 178.537 385.404 177.894C385.123 177.187 384.822 176.49 384.573 175.783C384.396 175.33 385.217 175.104 385.394 175.557Z" fill="#263238"/>
<path d="M385.394 171.74C385.207 171.089 385.02 170.449 384.822 169.798C384.625 169.148 384.355 168.479 384.209 167.8C384.209 167.696 384.001 167.744 384.032 167.8C384.209 168.45 384.292 169.129 384.417 169.789C384.542 170.449 384.687 171.108 384.833 171.759C385.107 172.994 385.453 174.214 385.872 175.416C385.14 175.367 384.43 175.171 383.794 174.841C383.174 174.376 382.73 173.746 382.526 173.04C382.235 172.305 381.975 171.561 381.674 170.835C381.3 170.039 381.001 169.216 380.78 168.375C380.78 168.262 380.572 168.309 380.593 168.375C380.951 170.152 381.505 171.892 382.245 173.568C382.567 174.228 382.806 174.907 383.523 175.227C384.312 175.53 385.161 175.681 386.017 175.67C386.111 175.67 386.256 175.67 386.235 175.547C386.017 174.341 385.747 173.012 385.394 171.74Z" fill="#263238"/>
<path d="M386.162 179.733C384.396 182.626 382.38 185.388 380.489 188.215C378.598 191.043 376.894 193.795 375.169 196.622C371.699 202.334 368.478 208.196 365.537 214.153C364.083 217.1 362.697 220.081 361.381 223.097C360.012 226.098 358.884 229.185 358.004 232.334C357.178 235.476 357.023 238.733 357.547 241.928C358.204 245.205 359.135 248.431 360.332 251.58C362.739 258.791 365.669 265.85 369.101 272.71C369.216 272.937 369.631 272.767 369.538 272.531C367.086 266.254 364.55 259.996 362.337 253.681C360.207 247.517 357.672 241.127 358.846 234.577C359.502 231.435 360.49 228.357 361.797 225.387C363.058 222.334 364.401 219.315 365.828 216.33C368.655 210.439 371.813 204.718 375.055 199.016C376.863 195.821 378.764 192.664 380.604 189.478C382.443 186.292 384.251 182.994 386.318 179.902C386.381 179.723 386.256 179.648 386.162 179.733Z" fill="#263238"/>
<path d="M419.984 173.549C419.142 173.427 417.906 173.691 414.279 173.465C413.271 173.384 412.271 173.236 411.287 173.022C410.288 172.88 409.339 172.532 408.513 172.004C407.195 170.873 406.121 169.531 405.343 168.045C404.372 166.513 403.627 164.872 403.13 163.163C403.13 163.059 402.933 163.107 402.954 163.21C403.151 164.153 403.255 165.095 403.536 166.094C403.803 166.992 404.15 167.868 404.575 168.714C405.242 170.389 406.36 171.886 407.827 173.069C409.468 174.19 411.765 174.398 413.749 174.53C414.903 174.605 419.423 174.53 419.984 173.908C420.15 173.804 420.139 173.578 419.984 173.549Z" fill="#263238"/>
<path d="M431.818 312.239C426.152 301.796 420.61 291.287 415.193 280.712C409.776 270.138 404.519 259.484 399.421 248.752C398.01 246.232 396.886 243.589 396.064 240.863C395.368 237.876 396.387 235.208 397.779 232.503C400.369 227.598 403.266 222.831 406.455 218.225C409.572 213.587 412.939 209.054 416.232 204.502C419.638 200.043 422.761 195.411 425.584 190.628C428.14 186 429.563 181.071 428.836 175.887C428.109 170.704 425.646 165.916 423.017 161.363C422.321 160.166 421.604 158.979 420.939 157.772C420.887 157.688 420.731 157.772 420.794 157.857C423.724 162.626 426.54 167.631 427.911 172.937C428.618 175.582 428.835 178.315 428.555 181.024C428.19 183.759 427.341 186.423 426.041 188.913C423.599 193.776 420.191 198.262 416.98 202.72C413.77 207.178 410.351 211.816 407.151 216.434C403.9 221.057 400.914 225.829 398.205 230.732C397.02 232.928 395.722 235.218 395.431 237.678C395.119 240.383 396.189 242.965 397.342 245.406C402.33 256.019 407.587 266.547 412.928 277.018C418.269 287.489 423.807 297.998 429.428 308.403L431.506 312.333C431.641 312.55 431.901 312.399 431.818 312.239Z" fill="#263238"/>
<path d="M375.616 75.8964C376.655 71.5892 381.934 61.8437 392.355 63.7475C407.234 66.4714 409.385 92.475 416.794 100.581C430.208 115.265 430.644 129.798 419.651 132.126C407.328 134.727 395.337 122.701 395.753 96.7822C396.034 80.5524 390.994 73.3611 387.441 73.8417C383.887 74.3224 381.923 78.4223 381.923 78.4223L375.616 75.8964Z" fill="#263238"/>
<path d="M376.115 74.2852C376.851 72.276 377.852 70.3551 379.097 68.5642C380.346 66.7292 382.002 65.15 383.96 63.927C385.987 62.6847 388.393 62.0517 390.838 62.1174C393.263 62.1838 395.634 62.7821 397.748 63.8611C399.809 64.9796 401.581 66.4871 402.943 68.2814C404.29 70.0444 405.409 71.9418 406.278 73.9364C407.929 77.891 409.086 82.0008 409.728 86.189C408.596 82.1397 407.13 78.1732 405.343 74.3228C404.416 72.4402 403.278 70.6494 401.946 68.9789C400.652 67.33 398.987 65.9487 397.062 64.9261C395.134 63.9289 392.972 63.3635 390.755 63.2767C388.561 63.1835 386.387 63.6962 384.521 64.747C382.607 65.8419 380.945 67.2631 379.627 68.9317C378.938 69.7649 378.304 70.6335 377.726 71.5331C377.144 72.4002 376.614 73.3332 376.115 74.2852Z" fill="#263238"/>
<path d="M395.701 87.8379C395.857 90.4109 395.701 92.9934 395.639 95.5664C395.576 98.1394 395.462 100.703 395.452 103.267C395.441 105.83 395.535 108.384 395.826 110.92C396.063 113.444 396.571 115.941 397.343 118.375C398.073 120.794 399.304 123.065 400.969 125.067C402.716 127.016 404.826 128.671 407.203 129.958C409.583 131.269 412.272 132.05 415.048 132.239C416.437 132.337 417.834 132.27 419.204 132.041C419.909 131.922 420.603 131.758 421.282 131.551C421.959 131.37 422.603 131.1 423.194 130.75C422.036 131.515 420.717 132.057 419.319 132.343C417.924 132.672 416.489 132.834 415.048 132.824C413.594 132.799 412.15 132.613 410.746 132.267C409.347 131.91 407.997 131.408 406.725 130.769C405.45 130.135 404.246 129.39 403.13 128.545L402.309 127.904L401.52 127.235C400.984 126.777 400.484 126.285 400.023 125.764C398.237 123.662 396.911 121.269 396.117 118.714C394.677 113.669 394.123 108.45 394.475 103.248C394.558 100.665 394.776 98.0923 395.026 95.5287C395.275 92.9651 395.608 90.4109 395.701 87.8379Z" fill="#263238"/>
<path d="M374.764 75.9725C374.598 74.7755 375.398 73.145 376.229 72.8528C377.061 72.5607 383.69 74.4928 384.386 75.9348C385.082 77.3769 382.401 78.9131 382.401 78.9131L374.764 75.9725Z" fill="#1D764A"/>
<path d="M382.703 118.422C378.619 123.71 349.089 145.585 332.984 146.396C325.711 146.754 297.262 143.945 290.924 141.58C283.141 138.677 298.53 121.193 303.392 121.938C309.481 122.88 331.072 124.944 335.374 125.048C342.273 125.208 363.428 114.68 377.674 111.938C385.04 110.533 385.861 114.351 382.703 118.422Z" fill="#F6AE9E"/>
<path d="M382.38 119.421C377.871 126.556 361.953 138.79 361.953 138.79L359.241 134.247L350.264 119.252C350.264 119.252 365.35 113.804 375.356 111.156C376.531 110.828 377.734 110.589 378.952 110.439C385.414 109.685 386.256 113.295 382.38 119.421Z" fill="#E4F2FE"/>
<path d="M382.38 119.421C377.871 126.556 361.953 138.789 361.953 138.789L359.241 134.247L357.391 131.155L350.253 119.261C350.253 119.261 365.35 113.794 375.356 111.146C376.533 110.828 377.735 110.591 378.952 110.439C379.08 110.43 379.208 110.43 379.336 110.439C385.446 109.836 386.194 113.417 382.38 119.421Z" fill="#AD6359"/>
<path d="M363.563 115.567C363.91 116.868 363.91 118.225 363.563 119.526C363.217 118.225 363.217 116.868 363.563 115.567ZM359.293 123.333C358.561 123.323 357.83 123.402 357.121 123.569C357.831 123.731 358.561 123.811 359.293 123.805C360.028 123.81 360.762 123.731 361.475 123.569C360.762 123.403 360.029 123.323 359.293 123.333ZM381.362 112.268C380.627 112.258 379.893 112.338 379.18 112.504C379.893 112.671 380.627 112.75 381.362 112.74C382.094 112.745 382.824 112.665 383.534 112.504C382.824 112.343 382.094 112.264 381.362 112.268ZM372.863 122.108C373.377 122.583 373.957 122.994 374.588 123.333C374.214 122.761 373.76 122.235 373.237 121.769C372.721 121.297 372.141 120.885 371.512 120.544C371.888 121.114 372.342 121.64 372.863 122.108ZM364.478 131.533C364.992 132.011 365.571 132.426 366.203 132.768C365.832 132.193 365.378 131.667 364.852 131.203C364.338 130.726 363.758 130.311 363.127 129.969C363.485 130.54 363.925 131.066 364.436 131.533H364.478Z" fill="white"/>
<path d="M364.727 135.445C363.221 132.683 356.571 121.562 354.96 119.243C354.846 119.083 354.711 119.102 354.794 119.243C357.74 124.8 361.014 130.208 364.603 135.445C364.644 135.558 364.769 135.52 364.727 135.445Z" fill="#263238"/>
<path d="M382.38 119.421C377.871 126.556 361.953 138.79 361.953 138.79L359.241 134.247L357.391 131.156C366.026 123.427 376.427 113.917 379.336 110.42C385.446 109.836 386.194 113.418 382.38 119.421Z" fill="#A6A6A6"/>
<path d="M367.657 152.287L370.016 175.849C373.193 175.716 376.36 175.427 379.502 174.982C387.79 173.854 396.001 172.303 404.096 170.336C412.128 168.451 421.542 165.849 432.306 162.381C432.306 162.381 407.962 122.551 391.16 111.561C390.776 111.307 390.402 111.071 390.017 110.854C389.944 110.798 389.872 110.769 389.799 110.722C382.162 106.34 375.252 109.78 371.429 114.662C370.462 115.887 361.111 135.171 361.579 141.636C362.005 147.32 367.657 152.287 367.657 152.287Z" fill="#AD6359"/>
<path d="M381.165 127.065C381.349 127.708 381.436 128.371 381.425 129.035C381.436 129.702 381.348 130.368 381.165 131.014C380.981 130.368 380.894 129.702 380.905 129.035C380.899 128.371 380.986 127.709 381.165 127.065ZM386.828 151.74C386.822 152.407 386.909 153.072 387.087 153.719C387.276 153.074 387.364 152.407 387.347 151.74C387.358 151.073 387.271 150.407 387.087 149.761C386.909 150.408 386.822 151.073 386.828 151.74ZM404.959 137.697C404.948 138.364 405.035 139.03 405.219 139.676C405.565 138.375 405.565 137.018 405.219 135.717C405.035 136.364 404.948 137.029 404.959 137.697ZM371.71 148.733C371.698 149.401 371.786 150.066 371.969 150.713C372.316 149.412 372.316 148.055 371.969 146.754C371.786 147.4 371.698 148.066 371.71 148.733ZM392.657 131.363C391.921 131.358 391.188 131.437 390.475 131.599C391.909 131.913 393.405 131.913 394.839 131.599C394.129 131.437 393.399 131.358 392.667 131.363H392.657ZM408.118 148.941C407.382 148.926 406.647 149.005 405.936 149.176C407.37 149.49 408.866 149.49 410.3 149.176C409.591 149.011 408.86 148.931 408.128 148.941H408.118ZM384.615 162.871C383.882 162.86 383.152 162.939 382.443 163.106C383.152 163.274 383.882 163.353 384.615 163.342C385.35 163.352 386.084 163.273 386.796 163.106C386.086 162.945 385.357 162.866 384.625 162.871H384.615ZM411.993 160.156C411.261 160.151 410.532 160.23 409.822 160.392C411.252 160.706 412.745 160.706 414.175 160.392C413.462 160.23 412.729 160.151 411.993 160.156ZM381.362 112.24C380.627 112.23 379.893 112.309 379.18 112.475C379.893 112.642 380.627 112.721 381.362 112.711C382.094 112.716 382.824 112.637 383.534 112.475C382.823 112.323 382.093 112.254 381.362 112.268V112.24ZM392.48 116.603C392.994 117.081 393.574 117.496 394.205 117.838C393.837 117.262 393.383 116.735 392.854 116.274C392.34 115.796 391.761 115.381 391.129 115.039C391.504 115.622 391.962 116.157 392.49 116.632L392.48 116.603ZM415.183 138.649C415.697 139.126 416.277 139.541 416.908 139.883C416.537 139.309 416.083 138.783 415.557 138.319C415.041 137.843 414.462 137.429 413.832 137.084C414.204 137.666 414.658 138.202 415.183 138.677V138.649ZM378.879 141.005C379.393 141.482 379.973 141.897 380.604 142.239C379.828 141.085 378.759 140.116 377.487 139.412C377.869 140.006 378.337 140.551 378.879 141.033V141.005ZM399.764 156.961C400.278 157.439 400.857 157.854 401.489 158.196C400.713 157.042 399.644 156.072 398.371 155.369C398.756 155.953 399.224 156.488 399.764 156.961ZM372.915 122.089C373.429 122.563 374.009 122.975 374.64 123.314C374.266 122.742 373.812 122.216 373.289 121.749C372.773 121.277 372.193 120.866 371.564 120.524C371.923 121.099 372.359 121.631 372.863 122.108L372.915 122.089ZM371.439 134.473C371.963 134.005 372.421 133.48 372.801 132.909C372.167 133.245 371.587 133.657 371.076 134.134C370.55 134.6 370.092 135.126 369.715 135.699C370.324 135.359 370.886 134.954 371.387 134.492L371.439 134.473ZM420.742 151.306C421.268 150.843 421.722 150.316 422.093 149.742C420.817 150.442 419.748 151.412 418.976 152.569C419.604 152.223 420.18 151.805 420.69 151.325L420.742 151.306ZM374.131 158.055C374.654 157.588 375.108 157.062 375.481 156.49C374.206 157.19 373.136 158.16 372.364 159.318C372.992 158.972 373.569 158.554 374.079 158.074L374.131 158.055ZM401.956 125.567C402.482 125.101 402.94 124.575 403.317 124.002C402.684 124.342 402.104 124.757 401.592 125.237C401.066 125.703 400.609 126.229 400.231 126.801C400.843 126.462 401.405 126.053 401.904 125.585L401.956 125.567ZM395.057 167.885C395.586 167.421 396.043 166.895 396.418 166.32C395.785 166.66 395.205 167.076 394.693 167.555C394.167 168.021 393.709 168.547 393.332 169.12C393.944 168.78 394.506 168.371 395.005 167.904L395.057 167.885ZM395.057 142.437C395.589 141.976 396.047 141.449 396.418 140.873C395.145 141.577 394.077 142.546 393.301 143.7C393.937 143.349 394.517 142.921 395.026 142.428L395.057 142.437Z" fill="white"/>
<path d="M385.03 110.317C384.885 111.26 380.749 117.386 376.24 117.546C374.764 117.593 374.11 110.336 374.11 110.336L373.923 109.808L371.356 102.447L380.541 96.0667L381.882 95.209C381.882 95.209 382.432 97.2731 383.097 99.8367L383.191 100.204C383.191 100.346 383.274 100.478 383.305 100.619L383.617 101.778C383.69 102.08 383.762 102.372 383.825 102.721L384.043 103.663C384.539 105.858 384.869 108.081 385.03 110.317Z" fill="#F6AE9E"/>
<path d="M383.139 99.8367C382.505 102.011 381.355 104.034 379.771 105.765C378.186 107.495 376.205 108.891 373.964 109.855L371.398 102.495L380.541 96.0667L381.882 95.209C381.882 95.209 382.432 97.2259 383.139 99.8367Z" fill="#263238"/>
<path d="M359.968 91.3535C359.895 104.907 368.842 106.481 372.063 106.49C374.982 106.49 384.947 106.198 386.609 92.7202C388.272 79.2424 381.3 74.9352 374.619 74.5864C367.938 74.2377 360.041 77.7721 359.968 91.3535Z" fill="#F6AE9E"/>
<path d="M385.747 93.6345C383.305 93.8607 382.63 89.2142 382.63 89.2142C382.63 89.2142 377.653 89.3461 375.834 82.8805C376.027 84.8255 376.844 86.6767 378.183 88.2057C378.183 88.2057 369.361 87.5836 365.475 80.9861C365.475 80.9861 367.044 84.3509 368.457 85.529C366.214 84.9549 364.249 83.7134 362.878 82.004C362.878 82.004 361.444 85.8871 360.29 86.971C360.29 86.971 358.586 80.1473 361.714 76.6035C368.301 69.0635 379.118 75.661 379.118 75.661C379.118 75.661 385.165 76.4904 387.326 80.5997C390.662 86.8862 385.747 93.6345 385.747 93.6345Z" fill="#263238"/>
<path d="M384.178 93.7191C384.178 93.7191 387.046 89.2611 389.259 90.1564C391.472 91.0518 389.571 97.3477 387.181 98.3656C386.885 98.5165 386.559 98.6119 386.223 98.646C385.886 98.6802 385.545 98.6525 385.22 98.5645C384.895 98.4766 384.593 98.3302 384.332 98.1341C384.071 97.938 383.856 97.6962 383.7 97.4231L384.178 93.7191Z" fill="#F6AE9E"/>
<path d="M361.839 88.6111C362.19 88.5558 362.537 88.4802 362.878 88.3849C363.244 88.3476 363.588 88.2018 363.854 87.9702C363.928 87.8855 363.967 87.781 363.967 87.6733C363.967 87.5656 363.928 87.4611 363.854 87.3764C363.677 87.2352 363.461 87.139 363.229 87.0976C362.998 87.0562 362.758 87.0711 362.535 87.1408C362.059 87.2226 361.634 87.4609 361.34 87.81C361.283 87.8895 361.251 87.9817 361.247 88.0765C361.244 88.1714 361.269 88.2653 361.321 88.3479C361.372 88.4306 361.448 88.4988 361.539 88.5452C361.63 88.5916 361.734 88.6144 361.839 88.6111Z" fill="#263238"/>
<path d="M371.585 89.6667C371.235 89.6352 370.888 89.5849 370.546 89.5159C370.166 89.5094 369.8 89.3865 369.507 89.1672C369.432 89.0832 369.391 88.9784 369.391 88.8703C369.391 88.7622 369.432 88.6574 369.507 88.5734C369.669 88.4192 369.875 88.3078 370.102 88.2514C370.329 88.195 370.568 88.1955 370.795 88.253C371.277 88.3013 371.723 88.5054 372.052 88.8279C372.12 88.9055 372.161 88.9989 372.172 89.0971C372.183 89.1954 372.162 89.2944 372.113 89.3825C372.064 89.4706 371.988 89.5442 371.895 89.5945C371.801 89.6449 371.694 89.6699 371.585 89.6667Z" fill="#263238"/>
<path d="M369.631 92.438C369.631 92.438 369.704 92.438 369.704 92.5228C369.704 93.4653 369.839 94.5209 370.743 94.8131V94.8696C369.631 94.7377 369.413 93.3239 369.631 92.438Z" fill="#263238"/>
<path d="M370.494 91.457C372.135 91.3157 372.322 94.2845 370.795 94.4448C369.268 94.605 369.112 91.5701 370.494 91.457Z" fill="#263238"/>
<path d="M371.148 91.5803C371.45 91.7405 371.751 92.0233 372.104 92.0421C372.458 92.061 372.79 91.7217 373.039 91.4106H373.091C373.091 91.9856 372.925 92.5888 372.26 92.7113C371.595 92.8338 371.221 92.3343 370.972 91.7688C370.941 91.684 371.034 91.5238 371.148 91.5803Z" fill="#263238"/>
<path d="M363.906 92.4844C363.906 92.4844 363.823 92.5315 363.834 92.5692C363.927 93.5117 363.833 94.5767 362.961 94.9349C362.961 94.9349 362.961 94.9914 362.961 94.9349C364.093 94.7747 364.156 93.3515 363.906 92.4844Z" fill="#263238"/>
<path d="M362.919 91.5703C361.267 91.5703 361.35 94.5486 362.919 94.5675C364.488 94.5863 364.311 91.5892 362.919 91.5703Z" fill="#263238"/>
<path d="M362.244 91.7776C361.984 91.9473 361.735 92.2395 361.423 92.2678C361.111 92.296 360.779 91.9756 360.54 91.6646H360.488C360.488 92.2395 360.716 92.8333 361.329 92.9275C361.942 93.0218 362.275 92.5128 362.368 91.9379C362.441 91.8719 362.358 91.7117 362.244 91.7776Z" fill="#263238"/>
<path d="M365.621 96.5936C365.621 96.5936 365.475 97.9508 365.475 98.6388C366.874 98.6002 368.272 98.7334 369.631 99.0347C369.953 99.1195 369.933 98.8744 369.569 98.6954C368.485 98.1659 367.252 97.9396 366.026 98.045C365.974 97.866 366.296 95.9056 366.182 95.9056C365.624 95.9691 365.078 96.1023 364.561 96.3014C364.769 93.3891 365.496 90.5239 365.652 87.621C365.652 87.5985 365.642 87.5769 365.624 87.561C365.607 87.5451 365.583 87.5361 365.558 87.5361C365.533 87.5361 365.51 87.5451 365.492 87.561C365.475 87.5769 365.465 87.5985 365.465 87.621C364.586 90.6623 364.043 93.7753 363.844 96.914C363.875 97.2628 365.34 96.7161 365.621 96.5936Z" fill="#263238"/>
<path d="M367.169 98.6389C367.69 99.2596 368.419 99.7095 369.247 99.9207C370.504 100.034 370.587 98.9782 369.184 98.4976C368.511 98.3765 367.814 98.4254 367.169 98.6389Z" fill="#263238"/>
<path d="M369.268 99.9208C368.794 99.8487 368.352 99.6596 367.99 99.3742C368.218 99.0066 368.8 98.5919 370.172 99.1857C370.39 99.6192 370.068 99.9962 369.268 99.9208Z" fill="#DBEEFE"/>
<path d="M382.838 108.696C384.666 108.696 387.742 109.111 391.898 111.976C391.898 111.976 383.232 118.3 375.169 118.3C372.291 118.3 371.429 114.652 371.429 114.652C371.429 114.652 375.305 108.752 382.838 108.696Z" fill="#F6AE9E"/>
<path d="M519.732 380.061H485.786C461.119 380.061 446.032 364.595 443.321 336.518C441.98 322.672 441.159 305.915 440.297 288.177C437.637 233.672 433.99 159.054 410.601 159.054H383.721V153.399H410.601C439.944 153.399 443.289 221.796 446.521 287.941C447.383 305.622 448.204 322.324 449.534 336.009C451.228 353.52 458.885 374.397 485.786 374.397H519.732V380.061Z" fill="#1D764A"/>
<path opacity="0.2" d="M403.463 153.38L402.133 159.035H383.721V153.38H403.463Z" fill="black"/>
<path d="M333.057 122.362H322.189V191.25H333.057V122.362Z" fill="#1D764A"/>
<path d="M322.199 127.452H280.876V185.453H322.199V127.452Z" fill="#1D764A"/>
<path opacity="0.2" d="M322.188 127.461V185.463H311.923L307.32 127.461H322.188Z" fill="black"/>
<path d="M249.165 137.867H280.866V146.538H249.165C248.079 146.538 247.038 146.146 246.27 145.45C245.502 144.754 245.071 143.809 245.071 142.824V141.59C245.069 141.101 245.174 140.617 245.379 140.166C245.585 139.714 245.886 139.304 246.266 138.958C246.646 138.612 247.098 138.337 247.596 138.15C248.093 137.963 248.626 137.867 249.165 137.867Z" fill="#E4F2FE"/>
<path d="M280.866 137.867H269.738V146.528H280.866V137.867Z" fill="#A6A6A6"/>
<path d="M249.165 166.377H280.866V175.048H249.165C248.079 175.048 247.038 174.657 246.27 173.96C245.502 173.264 245.071 172.319 245.071 171.335V170.1C245.069 169.611 245.174 169.127 245.379 168.676C245.585 168.224 245.886 167.814 246.266 167.468C246.646 167.122 247.098 166.848 247.596 166.661C248.093 166.473 248.626 166.377 249.165 166.377Z" fill="#E4F2FE"/>
<path d="M280.866 166.377H269.738V175.039H280.866V166.377Z" fill="#A6A6A6"/>
<path d="M397.28 150.92H364.997V162.484H397.28V150.92Z" fill="#1D764A"/>
<path d="M397.28 150.929H364.997V162.494H397.28V150.929Z" fill="#1D764A"/>
<path opacity="0.2" d="M376.333 150.929L375.273 162.494H364.997V150.929H376.333Z" fill="black"/>
<path d="M333.057 129.638H358.607C360.302 129.638 361.927 130.249 363.125 131.336C364.324 132.423 364.997 133.897 364.997 135.435V177.48C364.997 179.017 364.324 180.491 363.125 181.578C361.927 182.665 360.302 183.276 358.607 183.276H333.057V129.638Z" fill="#1D764A"/>
<path opacity="0.2" d="M346.648 129.638L342.045 183.276H333.067V129.638H346.648Z" fill="black"/>
<g opacity="0.2">
<path opacity="0.2" d="M344.268 140.477H342.232V172.428H344.268V140.477Z" fill="black"/>
<path opacity="0.2" d="M350.045 140.477H348.009V172.428H350.045V140.477Z" fill="black"/>
<path opacity="0.2" d="M355.823 140.477H353.786V172.428H355.823V140.477Z" fill="black"/>
</g>
<path d="M394.288 118.563C397.862 127.659 392.74 160.976 386.682 168.035C377.684 178.497 359.906 188.12 353.111 191.127C350.139 192.437 336.829 173.134 339.728 171.334C345.962 167.461 365.818 158.215 367.501 156.377C369.185 154.539 378.245 136.886 381.871 126.961C386.744 113.634 392.49 113.974 394.288 118.563Z" fill="#F6AE9E"/>
<path d="M353.09 191.184C343.666 196.066 324.911 195.35 322.355 194.643L319.051 193.7C315.113 192.692 314.053 190.722 314.053 190.722C314.053 190.722 309.128 190.778 308.588 188.083C307.985 185.058 315.019 185.566 319.082 183.7C328.433 179.431 340.299 170.986 342.845 169.516L353.09 191.184Z" fill="#F6AE9E"/>
<path d="M332.309 185.454C329.603 186.74 326.801 187.851 323.924 188.781C320.713 189.626 317.438 190.256 314.126 190.666C314.11 190.671 314.096 190.681 314.086 190.694C314.077 190.706 314.071 190.721 314.071 190.737C314.071 190.752 314.077 190.767 314.086 190.78C314.096 190.792 314.11 190.802 314.126 190.807C320.627 190.647 326.955 188.874 332.423 185.68C332.558 185.605 332.444 185.397 332.309 185.454Z" fill="#263238"/>
<path d="M335.967 190.175C333.203 191.212 328.33 193.002 319.041 193.624C319.041 193.624 319.041 193.671 319.041 193.681C324.94 194.051 330.836 192.925 336.07 190.429C336.237 190.316 336.154 190.109 335.967 190.175Z" fill="#263238"/>
<path d="M329.94 177.922C330.906 176.98 330.335 176.471 327.779 176.886C325.223 177.3 315.508 180.938 314.396 177.762C313.284 174.586 327.083 169.628 331.395 169.223C335.29 169.04 339.196 169.144 343.073 169.534C340.6 170.986 334.74 175.02 329.94 177.922Z" fill="#F6AE9E"/>
<path d="M384.261 120.854C390.547 108.855 396.283 112.032 396.834 123.898C397.019 132.138 396.609 140.381 395.608 148.573L372.821 142.654C372.821 142.654 380.24 128.535 384.261 120.854Z" fill="#AD6359"/>
<path d="M389.934 113.86C391.207 114.564 392.276 115.533 393.051 116.688C391.779 115.984 390.71 115.015 389.934 113.86ZM380.905 129.053C380.894 129.721 380.981 130.386 381.165 131.033C381.348 130.386 381.436 129.721 381.425 129.053C381.436 128.389 381.349 127.727 381.165 127.084C380.986 127.727 380.898 128.39 380.905 129.053ZM392.667 131.381C391.932 131.376 391.198 131.455 390.485 131.617C391.919 131.931 393.415 131.931 394.849 131.617C394.136 131.449 393.403 131.363 392.667 131.363V131.381ZM378.879 141.033C379.393 141.51 379.972 141.925 380.604 142.267C379.828 141.113 378.759 140.144 377.487 139.44C377.871 140.024 378.339 140.56 378.879 141.033ZM395.026 142.428C395.557 141.966 396.015 141.439 396.387 140.863C395.114 141.567 394.045 142.536 393.27 143.691C393.916 143.344 394.506 142.919 395.026 142.428Z" fill="white"/>
<path d="M382.1 124.511C381.248 126.085 380.354 127.63 379.461 129.223C379.613 128.488 379.738 127.744 379.835 126.99H379.773C379.648 127.574 379.492 128.158 379.367 128.743C379.315 129.025 379.253 129.308 379.191 129.591C379.191 129.647 379.191 129.704 379.191 129.77C378.494 130.976 377.809 132.192 377.113 133.417C376.323 134.888 375.585 136.367 374.837 137.847C374.089 139.327 373.393 141.137 372.551 142.635C373.267 142.906 374.012 143.108 374.775 143.238C374.972 143.304 375.076 143.125 374.868 143.097C374.66 143.069 372.956 142.456 372.936 142.447C373.684 140.948 374.608 139.534 375.398 138.064C376.188 136.594 376.998 135.142 377.757 133.662C379.295 130.665 380.645 127.583 382.173 124.577C382.173 124.501 382.1 124.473 382.1 124.511Z" fill="#263238"/>
<path d="M397.779 131.655C397.571 132.268 397.332 132.88 397.156 133.54C397.093 133.804 397.021 134.058 396.948 134.322C397.031 132.173 397.107 130.031 397.176 127.895C396.854 131.401 396.522 134.897 396.272 138.403C395.911 141.761 395.741 145.133 395.763 148.507C395.08 148.36 394.385 148.263 393.685 148.215C394.441 148.506 395.233 148.712 396.044 148.828C396.615 145.434 396.657 141.683 396.844 138.271C396.896 137.329 396.927 136.386 396.969 135.378C397.093 134.784 397.28 134.2 397.457 133.616C397.634 133.031 397.769 132.353 397.914 131.731C397.862 131.636 397.789 131.617 397.779 131.655Z" fill="#263238"/>
<path d="M394.683 145.444C391.472 144.407 378.172 140.599 375.242 139.949C375.034 139.902 374.951 140.005 375.159 140.071C381.534 142.22 388.034 144.048 394.631 145.547C394.714 145.576 394.766 145.463 394.683 145.444Z" fill="#263238"/>
<path d="M282.975 142.249C286.092 143.116 285.458 139.252 285.458 139.252C285.458 139.252 287.9 144.605 291.526 144.369C295.153 144.134 294.031 139.487 293.968 139.148C294.093 139.431 296.483 144.294 300.099 143.719C303.714 143.144 301.979 138.601 301.855 138.318C302.073 138.545 304.972 141.551 307.632 140.543C312.162 138.809 304.93 130.929 305.46 127.348L311.829 127.517C312.039 127.499 312.247 127.471 312.453 127.433L312.692 124.483C310.656 123.733 308.69 122.838 306.811 121.806C304.411 120.581 302.094 119.468 300.369 119.431C299.595 119.393 298.828 119.583 298.183 119.972C297.537 120.36 297.047 120.928 296.784 121.589C296.784 121.589 294.914 118.912 292.046 119.289C290.581 119.487 289.625 121.796 289.625 121.796C289.165 121.205 288.532 120.742 287.798 120.457C287.065 120.172 286.258 120.078 285.469 120.185C283.453 120.562 282.809 122.824 282.809 122.824C282.809 122.824 280.253 121.457 278.331 122.456C274.476 124.398 276.242 140.364 282.975 142.249Z" fill="#F6AE9E"/>
<path d="M306.25 127.009L311.798 127.471C312.007 127.452 312.216 127.424 312.422 127.386C319.425 126.236 323.789 118.96 318.656 118.442C314.801 118.036 310.624 122.683 306.728 121.75L306.25 127.009Z" fill="#F6AE9E"/>
<path d="M282.674 123.116H282.58C281.697 128.691 282.705 134.378 285.469 139.421C285.562 139.581 285.884 139.506 285.822 139.317C283.91 134.084 282.85 128.626 282.674 123.116Z" fill="#263238"/>
<path d="M289.625 121.674C289.625 121.609 289.511 121.609 289.5 121.674C288.565 127.822 290.083 134.069 293.781 139.29C293.916 139.469 294.238 139.507 294.093 139.29C291.786 135.652 289.625 126.849 289.625 121.674Z" fill="#263238"/>
<path d="M302.27 138.545C298.685 133.417 297.262 127.762 296.732 121.768C296.732 121.693 296.607 121.711 296.586 121.768C295.973 124.765 296.753 128.554 297.625 131.457C298.388 134.164 299.917 136.643 302.062 138.648C302.166 138.733 302.353 138.658 302.27 138.545Z" fill="#263238"/>
<path d="M214.502 353.369C212.351 354.019 150.767 353.859 148.419 352.511C147.536 352.002 147.037 343.859 146.746 334.01C146.673 331.889 146.632 329.693 146.59 327.46C146.59 324.821 146.507 322.144 146.486 319.543C146.413 307.874 146.59 297.601 146.59 297.601H186.687V319.543V327.46L186.479 334.01C186.479 334.01 210.024 343.642 212.455 345.377C214.886 347.111 216.653 352.766 214.502 353.369Z" fill="#F7AE9E"/>
<path d="M214.502 353.369C212.351 354.019 150.767 353.859 148.419 352.511C147.536 352.002 147.037 343.859 146.746 334.01C146.673 331.889 146.632 329.693 146.59 327.46C146.59 324.821 146.507 322.144 146.486 319.542H186.666V327.46L186.458 334.01C186.458 334.01 210.003 343.642 212.434 345.376C214.866 347.111 216.653 352.766 214.502 353.369Z" fill="white"/>
<path d="M214.689 353.492C213.286 353.916 187.061 354.001 167.932 353.643C163.506 353.549 159.464 353.445 156.212 353.313C151.713 353.125 148.699 352.908 148.211 352.625C147.12 351.994 146.611 340.043 146.362 327.432H186.645L186.437 334.03C186.437 334.03 210.117 343.719 212.528 345.462C214.938 347.206 216.892 352.833 214.689 353.492Z" fill="#1D764A"/>
<path d="M213.775 351.248C203.384 350.985 161.511 350.834 151.224 351.296C151.141 351.296 151.141 351.343 151.224 351.352C161.511 351.814 203.395 351.654 213.775 351.399C214.024 351.39 214.034 351.248 213.775 351.248Z" fill="#263238"/>
<path d="M187.944 331.937C183.861 331.239 178.863 331.795 175.735 334.425C175.611 334.528 175.735 334.679 175.912 334.642C179.819 333.506 183.849 332.757 187.934 332.408C188.003 332.409 188.069 332.385 188.119 332.342C188.168 332.299 188.197 332.239 188.199 332.177C188.2 332.114 188.174 332.054 188.126 332.009C188.078 331.964 188.013 331.938 187.944 331.937Z" fill="#263238"/>
<path d="M190.916 333.577C186.832 332.87 181.835 333.426 178.697 336.065C178.582 336.159 178.697 336.319 178.873 336.282C182.786 335.14 186.824 334.384 190.916 334.029C190.97 334.015 191.017 333.985 191.051 333.944C191.085 333.904 191.103 333.854 191.103 333.803C191.103 333.752 191.085 333.702 191.051 333.662C191.017 333.621 190.97 333.591 190.916 333.577Z" fill="#263238"/>
<path d="M193.835 335.179C189.752 334.472 184.754 335.028 181.627 337.658C181.502 337.761 181.627 337.922 181.793 337.884C185.701 336.752 189.731 336 193.815 335.641C193.874 335.632 193.928 335.605 193.968 335.565C194.008 335.524 194.031 335.472 194.034 335.418C194.036 335.363 194.018 335.31 193.982 335.266C193.945 335.223 193.894 335.192 193.835 335.179Z" fill="#263238"/>
<path d="M196.776 336.801C192.692 336.094 187.695 336.65 184.567 339.28C184.442 339.383 184.567 339.544 184.744 339.506C188.647 338.368 192.674 337.616 196.755 337.263C196.815 337.254 196.869 337.228 196.909 337.187C196.949 337.146 196.972 337.094 196.974 337.04C196.977 336.985 196.958 336.932 196.922 336.888C196.886 336.845 196.834 336.814 196.776 336.801Z" fill="#263238"/>
<path d="M195.519 323.389C193.919 321.381 190.926 322.276 189.222 323.568C186.333 325.844 184.154 328.769 182.905 332.05C182.898 332.064 182.895 332.08 182.896 332.095C182.898 332.111 182.903 332.126 182.913 332.139C182.922 332.152 182.935 332.163 182.949 332.17C182.964 332.178 182.981 332.182 182.998 332.182C182.998 332.465 183.289 332.766 183.632 332.644C187.009 331.522 190.781 330.702 193.669 328.667C195.363 327.479 197.036 325.292 195.519 323.389ZM188.37 329.986C186.728 330.57 185.056 331.089 183.435 331.73C184.613 330.048 185.886 328.421 187.248 326.857C187.914 326.106 188.64 325.401 189.42 324.746C190.635 323.737 195.456 321.617 194.719 325.688C194.313 327.922 190.334 329.279 188.37 329.986Z" fill="#263238"/>
<path d="M172.524 331.042C175.881 332.352 179.798 332.296 183.331 332.626C183.41 332.625 183.488 332.608 183.559 332.576C183.631 332.544 183.693 332.497 183.741 332.44C183.789 332.383 183.822 332.316 183.837 332.245C183.853 332.174 183.85 332.101 183.829 332.032C183.842 332.023 183.853 332.012 183.86 331.999C183.867 331.986 183.871 331.971 183.871 331.956C183.871 331.942 183.867 331.927 183.86 331.914C183.853 331.901 183.842 331.89 183.829 331.881C181.732 328.993 178.838 326.653 175.434 325.095C173.418 324.228 170.239 324.039 169.283 326.349C168.327 328.658 170.561 330.279 172.524 331.042ZM170.685 328.403C168.857 324.633 174.104 325.576 175.558 326.283C176.491 326.752 177.39 327.274 178.25 327.847C179.999 329.052 181.677 330.339 183.279 331.702C181.533 331.448 179.777 331.325 178.021 331.127C175.922 330.891 171.693 330.477 170.685 328.403Z" fill="#263238"/>
<path d="M192.381 324.868L142.694 325.678C142.694 325.678 135.93 285.801 131.482 261.004C129.799 251.682 128.469 244.482 127.929 242.314C126.64 237.14 101.464 155.01 101.464 155.01L137.582 154.963H149.925C149.925 154.963 149.136 168.695 149.603 170.137C156.045 190.015 169.21 225.264 173.325 237.545C179.632 256.423 192.381 324.868 192.381 324.868Z" fill="#1D764A"/>
<path d="M187.861 317.959C180.733 317.912 155.443 317.657 145.946 318.458C145.933 318.463 145.921 318.472 145.913 318.483C145.905 318.494 145.9 318.506 145.9 318.52C145.9 318.533 145.905 318.546 145.913 318.557C145.921 318.568 145.933 318.576 145.946 318.581C149.219 319.005 180.733 318.345 187.871 318.138C187.887 318.142 187.904 318.142 187.92 318.139C187.936 318.136 187.951 318.129 187.964 318.12C187.976 318.111 187.986 318.099 187.993 318.085C188 318.072 188.003 318.057 188.002 318.042C188.001 318.027 187.996 318.013 187.988 318C187.98 317.987 187.969 317.976 187.955 317.968C187.941 317.96 187.925 317.955 187.909 317.953C187.893 317.952 187.876 317.954 187.861 317.959Z" fill="#263238"/>
<path d="M143.504 283.973C141.786 273.662 139.871 263.376 137.758 253.116C136.719 248.073 135.587 243.04 134.132 238.036C132.677 233.031 130.828 228.083 128.937 223.172C125.217 213.408 121.664 203.596 118.328 193.719C114.993 183.842 111.886 173.927 108.977 163.927C108.603 162.664 108.239 161.401 107.834 160.157C107.834 160.053 107.637 160.1 107.657 160.157C108.79 165.19 110.255 170.175 111.658 175.152C113.06 180.128 114.567 185.086 116.136 190.024C119.295 199.94 122.72 209.786 126.412 219.562C128.251 224.426 130.163 229.28 131.794 234.209C133.426 239.138 134.693 244.134 135.826 249.166C138.122 259.383 140.075 269.666 141.883 279.949C143.691 290.231 145.239 300.684 146.757 311.051C146.954 312.361 147.141 313.681 147.328 315C147.38 315.368 148.024 315.368 147.983 315C146.808 304.661 145.198 294.303 143.504 283.973Z" fill="#263238"/>
<path d="M137.582 154.944L131.482 261.004C129.799 251.683 128.469 244.482 127.929 242.314C126.64 237.14 101.464 155.01 101.464 155.01L137.582 154.944Z" fill="#263238"/>
<path d="M152.877 362.305C150.726 362.955 89.1416 362.795 86.7933 361.437C85.9101 360.938 85.4114 352.795 85.1205 342.945C85.0477 340.815 85.0062 338.629 84.9646 336.395C84.9646 333.747 84.8815 331.079 84.8607 328.478C84.788 316.81 84.9646 306.537 84.9646 306.537H125.051V336.405L124.843 342.955C124.843 342.955 148.388 352.587 150.819 354.322C153.251 356.056 155.027 361.664 152.877 362.305Z" fill="#F7AE9E"/>
<path d="M152.876 362.304C150.725 362.955 89.1413 362.795 86.7931 361.437C85.9099 360.938 85.4112 352.795 85.1202 342.945C85.0475 340.815 85.0059 338.629 84.9644 336.395C84.9644 333.747 84.8813 331.079 84.8605 328.478H125.04V336.404L124.832 342.955C124.832 342.955 148.377 352.587 150.809 354.321C153.24 356.056 155.027 361.664 152.876 362.304Z" fill="white"/>
<path d="M153.063 362.389C151.661 362.804 125.425 362.888 106.306 362.53C101.89 362.445 97.8486 362.332 94.586 362.21C90.0973 362.021 87.0841 361.795 86.5853 361.512C85.5463 360.881 84.9852 348.939 84.7462 336.329H125.03L124.822 342.926C124.822 342.926 148.523 352.606 150.933 354.312C153.344 356.017 155.225 361.729 153.063 362.389Z" fill="#1D764A"/>
<path d="M152.18 360.137C141.79 359.882 99.906 359.722 89.6298 360.184C89.5467 360.184 89.5467 360.24 89.6298 360.25C99.906 360.702 141.8 360.552 152.18 360.297C152.398 360.288 152.398 360.146 152.18 360.137Z" fill="#263238"/>
<path d="M126.318 340.834C122.235 340.127 117.237 340.683 114.11 343.313C113.985 343.417 114.11 343.577 114.276 343.539C118.184 342.407 122.214 341.655 126.298 341.296C126.357 341.288 126.411 341.261 126.451 341.22C126.491 341.179 126.514 341.127 126.517 341.073C126.519 341.018 126.501 340.965 126.465 340.921C126.429 340.878 126.377 340.847 126.318 340.834Z" fill="#263238"/>
<path d="M129.259 342.455C125.175 341.748 120.178 342.304 117.05 344.934C116.925 345.038 117.05 345.198 117.227 345.16C121.133 344.022 125.164 343.27 129.249 342.917C129.308 342.907 129.361 342.88 129.4 342.838C129.439 342.797 129.461 342.744 129.462 342.69C129.463 342.636 129.444 342.583 129.407 342.54C129.37 342.497 129.317 342.467 129.259 342.455Z" fill="#263238"/>
<path d="M132.21 344.067C128.126 343.369 123.129 343.926 119.991 346.555C119.876 346.659 119.991 346.81 120.167 346.772C124.076 345.642 128.106 344.893 132.189 344.538C132.258 344.541 132.325 344.518 132.376 344.476C132.426 344.433 132.456 344.374 132.459 344.312C132.462 344.25 132.437 344.189 132.391 344.143C132.344 344.097 132.279 344.069 132.21 344.067Z" fill="#263238"/>
<path d="M135.15 345.688C131.067 344.991 126.069 345.547 122.942 348.176C122.817 348.28 122.942 348.431 123.108 348.393C127.016 347.264 131.046 346.515 135.129 346.159C135.198 346.162 135.266 346.139 135.316 346.097C135.367 346.055 135.397 345.996 135.4 345.933C135.402 345.871 135.378 345.81 135.331 345.764C135.284 345.718 135.219 345.691 135.15 345.688Z" fill="#263238"/>
<path d="M133.893 332.286C132.293 330.269 129.3 331.164 127.586 332.465C124.697 334.741 122.518 337.666 121.269 340.947C121.264 340.962 121.263 340.978 121.266 340.993C121.269 341.009 121.276 341.023 121.286 341.036C121.296 341.049 121.309 341.059 121.324 341.066C121.339 341.074 121.355 341.078 121.373 341.079C121.368 341.151 121.382 341.223 121.415 341.289C121.447 341.355 121.496 341.413 121.558 341.458C121.62 341.504 121.693 341.535 121.771 341.549C121.849 341.563 121.93 341.561 122.006 341.541C125.383 340.419 129.145 339.599 132.044 337.564C133.768 336.404 135.4 334.18 133.893 332.286ZM126.744 338.883C125.092 339.477 123.43 339.986 121.809 340.636C123.045 338.987 124.199 337.3 125.612 335.763C126.284 335.014 127.009 334.306 127.783 333.643C129.01 332.644 133.82 330.523 133.093 334.585C132.729 336.819 128.708 338.176 126.744 338.874V338.883Z" fill="#263238"/>
<path d="M110.909 339.939C114.276 341.249 118.183 341.192 121.726 341.522C121.806 341.522 121.886 341.506 121.958 341.473C122.03 341.44 122.092 341.392 122.14 341.334C122.187 341.275 122.219 341.206 122.232 341.134C122.245 341.062 122.239 340.988 122.214 340.919C122.23 340.914 122.245 340.906 122.257 340.895C122.269 340.884 122.279 340.871 122.285 340.857C122.291 340.842 122.293 340.827 122.292 340.812C122.29 340.796 122.285 340.781 122.276 340.768C120.159 337.883 117.247 335.55 113.829 334.001C111.813 333.134 108.634 332.945 107.678 335.254C106.722 337.563 108.925 339.175 110.909 339.939ZM109.081 337.29C107.252 333.52 112.499 334.463 113.954 335.179C114.888 335.642 115.788 336.161 116.645 336.734C118.391 337.945 120.07 339.235 121.674 340.598C119.918 340.334 118.162 340.221 116.406 340.023C114.297 339.788 110.068 339.373 109.06 337.29H109.081Z" fill="#263238"/>
<path d="M130.651 333.228H82.0343C82.0343 333.228 92.6014 196.49 90.8973 188.828C88.1023 176.283 89.9622 161.872 96.5082 154.897H139.764C139.764 154.897 140.626 165.906 136.158 172.485C136.158 172.485 132.095 174.813 130.132 175.84L130.651 333.228Z" fill="#1D764A"/>
<path d="M126.121 326.093C119.388 325.943 121.331 325.895 114.588 325.811C111.294 325.763 89.6506 325.49 86.5334 325.933C86.4607 325.933 86.4607 326.046 86.5334 326.056C89.6506 326.536 111.283 326.47 114.588 326.451C121.321 326.451 119.388 326.367 126.121 326.272C126.142 326.266 126.16 326.254 126.173 326.238C126.186 326.222 126.192 326.203 126.192 326.183C126.192 326.163 126.186 326.144 126.173 326.128C126.16 326.112 126.142 326.1 126.121 326.093Z" fill="#263238"/>
<path d="M138.859 170.759C134.607 172.619 130.536 174.804 126.692 177.291C126.661 177.308 126.638 177.337 126.629 177.369C126.62 177.402 126.626 177.437 126.646 177.465C126.665 177.494 126.696 177.515 126.732 177.523C126.768 177.531 126.806 177.525 126.838 177.508C130.994 175.444 135.15 173.445 139.14 171.183C139.202 171.15 139.247 171.095 139.264 171.031C139.282 170.968 139.271 170.9 139.234 170.844C139.196 170.788 139.136 170.747 139.066 170.732C138.996 170.716 138.921 170.726 138.859 170.759Z" fill="#263238"/>
<path d="M133.342 170.194C133.096 170.955 132.902 171.729 132.761 172.512C132.584 173.127 132.538 173.767 132.626 174.397C132.626 174.52 132.844 174.51 132.906 174.397C133.232 173.803 133.456 173.168 133.571 172.512C133.779 171.787 134.007 171.07 134.184 170.345C134.309 169.883 133.509 169.722 133.342 170.194Z" fill="#263238"/>
<path d="M132.958 166.414C133.072 165.755 133.186 165.104 133.321 164.454C133.457 163.804 133.644 163.097 133.716 162.418C133.716 162.305 133.924 162.343 133.903 162.418C133.789 163.078 133.779 163.756 133.716 164.416C133.654 165.076 133.592 165.745 133.519 166.405C133.373 167.649 133.158 168.885 132.875 170.109C133.592 169.998 134.274 169.744 134.87 169.364C135.422 168.848 135.785 168.19 135.909 167.479C136.117 166.725 136.304 165.971 136.522 165.217C136.816 164.401 137.028 163.562 137.156 162.71C137.156 162.597 137.363 162.635 137.343 162.71C137.174 164.502 136.805 166.274 136.241 167.998C136.12 168.681 135.733 169.303 135.15 169.751C134.4 170.114 133.576 170.335 132.729 170.401C132.636 170.401 132.49 170.401 132.501 170.297C132.582 168.997 132.735 167.701 132.958 166.414Z" fill="#263238"/>
<path d="M97.9214 188.328C97.6097 185.444 97.0902 182.579 96.7473 179.695C96.0975 173.921 96.4835 168.09 97.8902 162.428C97.8902 162.325 97.7344 162.277 97.7136 162.428C96.4833 167.401 95.9113 172.488 96.0096 177.584C96.2901 182.673 97.2876 187.687 97.3707 192.786C97.4538 197.885 97.0174 203.107 96.6538 208.253C96.2901 213.399 95.916 218.62 95.5524 223.795C94.0769 244.614 92.7158 265.434 91.3131 286.264C90.9252 292.069 90.5511 297.882 90.1909 303.7C89.8168 309.609 89.3597 315.528 89.1519 321.457C89.1519 321.966 89.9623 321.928 90.0143 321.457C90.991 311.004 91.5521 300.514 92.2898 290.062C93.0275 279.61 93.6821 269.327 94.3679 258.959C95.0536 248.592 95.7498 238.224 96.4459 227.857C96.7784 222.679 97.1248 217.502 97.485 212.324C97.8175 207.169 98.2331 202.004 98.3162 196.839C98.3619 193.998 98.2301 191.156 97.9214 188.328Z" fill="#263238"/>
<path d="M113.237 162.042C113.228 162.029 113.215 162.017 113.199 162.009C113.184 162.002 113.166 161.998 113.149 161.998C113.131 161.998 113.114 162.002 113.098 162.009C113.083 162.017 113.07 162.029 113.06 162.042C112.802 162.725 112.665 163.441 112.655 164.163C112.52 164.935 112.322 165.698 112.063 166.444C111.586 167.943 110.691 169.307 109.465 170.402C106.743 172.711 103.096 173.569 99.5839 174.342C99.5606 174.348 99.5403 174.362 99.5259 174.379C99.5114 174.397 99.5037 174.419 99.5037 174.441C99.5037 174.463 99.5114 174.484 99.5259 174.502C99.5403 174.52 99.5606 174.533 99.5839 174.54C101.671 174.625 103.755 174.33 105.714 173.673C107.462 173.188 109.074 172.368 110.442 171.269C111.748 170.142 112.64 168.678 112.998 167.075C113.184 166.237 113.281 165.385 113.289 164.53C113.289 164.125 113.289 163.72 113.289 163.305C113.363 162.885 113.346 162.456 113.237 162.042Z" fill="#263238"/>
<path d="M133.602 109.148C134.496 115.557 148.336 139.384 163.069 149.94C168.472 153.813 197.119 156.104 204.288 155.595C212.673 155.01 213.93 136.905 209.234 135.491C203.363 133.729 176.203 131.552 170.873 129.836C164.389 127.706 152.585 114.03 141.364 105.567C135.597 101.184 132.916 104.219 133.602 109.148Z" fill="#F7AE9E"/>
<path d="M204.288 155.604C206.938 155.538 219.064 154.275 222.357 153.238C225.651 152.202 234.826 148.601 234.244 146.236C233.662 143.87 230.836 144.728 230.836 144.728C230.836 144.728 234.462 142.645 233.6 140.317C232.737 137.989 228.405 139.459 228.405 139.459C228.405 139.459 231.958 137.075 230.909 134.803C229.859 132.532 225.817 134.671 225.817 134.671C225.817 134.671 229.184 132.626 227.459 131.08C225.381 129.195 219.645 133.634 215.926 134.53C215.074 134.737 198.449 137.555 198.449 137.555L204.288 155.604Z" fill="#F7AE9E"/>
<path d="M226.243 134.492C222.014 137.715 219.552 138.469 214.169 139.138C214.151 139.144 214.135 139.155 214.124 139.169C214.113 139.184 214.107 139.201 214.107 139.218C214.107 139.236 214.113 139.253 214.124 139.267C214.135 139.282 214.151 139.293 214.169 139.298C219.5 139.072 222.741 138.535 226.42 134.671C226.576 134.482 226.409 134.341 226.243 134.492Z" fill="#263238"/>
<path d="M228.768 139.195C224.061 142.249 221.401 143.031 215.853 144.134C215.78 144.134 215.801 144.275 215.853 144.266C221.422 143.615 224.643 143.012 228.914 139.449C229.09 139.27 228.986 139.054 228.768 139.195Z" fill="#263238"/>
<path d="M230.545 144.775C225.755 147.386 222.877 148.413 217.308 148.837C217.28 148.837 217.254 148.847 217.234 148.865C217.215 148.882 217.204 148.906 217.204 148.931C217.204 148.956 217.215 148.98 217.234 148.998C217.254 149.016 217.28 149.026 217.308 149.026C222.163 149.291 226.94 147.815 230.607 144.916C230.888 144.718 230.846 144.615 230.545 144.775Z" fill="#263238"/>
<path d="M194.604 135.576C197.403 133.936 200.331 132.484 203.364 131.231C206.294 130.289 218.658 130.289 218.793 132.721C218.98 135.85 211.842 137.103 208.257 137.311C208.257 137.311 208.704 144.54 203.79 146.453C198.875 148.366 194.604 135.576 194.604 135.576Z" fill="#F7AE9E"/>
<path d="M218.544 133.596C216.466 136.556 211.717 136.546 208.257 136.98C208.205 136.982 208.154 136.997 208.11 137.021C208.065 137.046 208.028 137.081 208.002 137.123C207.976 137.164 207.962 137.21 207.961 137.258C207.961 137.306 207.973 137.352 207.998 137.394C207.998 140.439 206.959 144.718 203.997 146.518C203.904 146.574 203.997 146.697 204.07 146.65C207.509 145.104 208.902 140.995 208.704 137.63C212.258 137.244 217.016 137.065 218.575 133.606C218.585 133.587 218.554 133.577 218.544 133.596Z" fill="#263238"/>
<path d="M179.538 155.255C179.538 155.255 164.867 151.617 163.08 150.345C161.13 148.954 159.27 147.463 157.511 145.877C144.159 133.973 136.096 117.743 133.914 112.088C131.607 106.066 133.727 100.298 139.909 104.181C140.407 104.5 140.885 104.843 141.343 105.208C148.616 110.957 168.067 128.441 170.436 129.336C172.805 130.232 184.224 131.589 184.224 131.589L179.538 155.255Z" fill="#AD6359"/>
<path d="M157.511 145.877C144.159 133.973 136.096 117.743 133.914 112.088C131.607 106.066 133.727 100.298 139.909 104.181L157.511 145.877Z" fill="#263238"/>
<path d="M179.486 131.174C178.803 132.993 178.238 134.847 177.793 136.725C177.284 138.611 176.754 140.496 176.328 142.381C175.402 146.077 174.709 149.819 174.25 153.587C174.25 153.609 174.259 153.631 174.277 153.647C174.294 153.663 174.318 153.672 174.343 153.672C174.368 153.672 174.392 153.663 174.409 153.647C174.427 153.631 174.437 153.609 174.437 153.587C175.559 149.892 176.39 146.113 177.242 142.362C177.668 140.477 178.052 138.648 178.478 136.801C178.904 134.954 179.414 133.031 179.642 131.202C179.646 131.184 179.642 131.164 179.63 131.148C179.619 131.132 179.6 131.121 179.58 131.118C179.559 131.114 179.538 131.118 179.52 131.128C179.503 131.139 179.49 131.155 179.486 131.174Z" fill="#263238"/>
<path d="M147.837 122.202C148.18 123.597 148.45 125.029 148.658 126.5C148.653 126.443 148.653 126.387 148.658 126.33C148.741 125.529 148.803 124.709 148.959 123.917C148.959 123.917 149.042 123.87 149.042 123.917C149.096 124.732 149.061 125.55 148.938 126.358C148.886 126.745 148.834 127.131 148.772 127.508C148.845 128.159 148.907 128.809 148.949 129.45C149.032 130.675 149.291 135.906 149.26 136.801C149.26 136.99 149.021 137.009 148.969 136.801C148.772 135.859 148.252 130.496 148.107 129.261C147.835 126.907 147.703 124.541 147.712 122.174C147.733 122.145 147.816 122.155 147.837 122.202Z" fill="#263238"/>
<path d="M149.489 161.354C147.411 163.05 144.876 165.529 130.288 166.453C129.373 166.453 128.438 166.519 127.503 166.453C113.455 166.095 93.7444 156.085 92.5703 155.293C92.5703 155.293 107.709 118.14 127.732 103.88C130.589 101.835 136.719 102.843 140.553 104.945C141.925 105.699 146.455 112.57 147.369 118.828C148.284 125.086 151.557 159.657 149.489 161.354Z" fill="#AD6359"/>
<path d="M138.111 114.256C134.579 114.52 129.519 108.978 127.856 104.831C127.742 104.548 128.656 101.843 129.591 98.5069C130.152 96.4806 130.724 94.2186 131.077 92.1168C131.15 91.6832 132.636 92.7011 132.636 92.7011L135.524 93.7756L145.083 97.3382C143.806 99.8516 142.875 102.498 142.309 105.218C142.279 105.512 142.279 105.809 142.309 106.104C142.314 106.151 142.314 106.198 142.309 106.245C142.278 107.913 141.52 113.973 138.111 114.256Z" fill="#F7AE9E"/>
<path d="M142.268 106.095C142.272 106.142 142.272 106.189 142.268 106.236C141.762 106.23 141.258 106.186 140.761 106.104C130.994 104.549 131.69 93.0786 131.69 93.0786L135.535 93.7666L145.094 97.3293C143.817 99.8427 142.885 102.489 142.32 105.209C142.272 105.502 142.254 105.798 142.268 106.095Z" fill="#263238"/>
<path d="M130.09 78.3102C128.23 82.9661 130.215 96.7455 133.748 99.9877C138.87 104.7 147.65 105.483 152.107 99.8086C156.44 94.3233 153.5 76.3969 149.52 73.4186C143.65 69.0548 132.833 71.4393 130.09 78.3102Z" fill="#F7AE9E"/>
<path d="M143.93 87.8472C143.93 87.8472 143.858 87.9037 143.868 87.9414C144.024 88.8839 144.045 89.9489 143.151 90.3636C143.151 90.3636 143.151 90.4202 143.151 90.4108C144.284 90.1375 144.253 88.6954 143.93 87.8472Z" fill="#263238"/>
<path d="M142.881 86.9801C141.218 87.0555 141.509 90.0621 143.047 89.9961C144.585 89.9301 144.273 86.9141 142.881 86.9801Z" fill="#263238"/>
<path d="M150.227 87.2256C150.227 87.2256 150.31 87.2256 150.31 87.301C150.372 88.2435 150.611 89.2991 151.567 89.5441C150.393 89.5347 150.113 88.121 150.227 87.2256Z" fill="#263238"/>
<path d="M151.058 86.1792C152.7 85.9436 153.136 88.9407 151.588 89.1669C150.04 89.3931 149.676 86.3866 151.058 86.1792Z" fill="#263238"/>
<path d="M141.592 84.7563C142.029 84.6149 142.413 84.417 142.839 84.2379C143.303 84.1154 143.708 83.8568 143.993 83.5028C144.062 83.376 144.082 83.2318 144.05 83.0934C144.018 82.9549 143.935 82.8303 143.816 82.7394C143.546 82.5979 143.239 82.5234 142.927 82.5234C142.616 82.5234 142.309 82.5979 142.039 82.7394C141.443 82.9435 140.953 83.344 140.668 83.8609C140.615 83.9805 140.602 84.111 140.628 84.2373C140.655 84.3636 140.721 84.4804 140.817 84.5742C140.914 84.668 141.039 84.735 141.176 84.7672C141.313 84.7994 141.457 84.7957 141.592 84.7563Z" fill="#263238"/>
<path d="M152.097 85.1623C151.643 85.1169 151.192 85.0477 150.746 84.9549C150.26 84.9408 149.793 84.7818 149.416 84.5025C149.324 84.3912 149.273 84.2556 149.273 84.1161C149.273 83.9766 149.324 83.8409 149.416 83.7297C149.63 83.5237 149.902 83.3744 150.202 83.298C150.502 83.2216 150.82 83.221 151.12 83.2961C151.756 83.3558 152.345 83.6279 152.772 84.0595C152.862 84.1659 152.916 84.2938 152.926 84.4274C152.937 84.561 152.905 84.6945 152.833 84.8116C152.761 84.9286 152.653 85.0242 152.523 85.0865C152.392 85.1488 152.244 85.1751 152.097 85.1623Z" fill="#263238"/>
<path d="M148.783 92.2966C148.887 92.9748 148.953 93.6575 148.98 94.3418C147.575 94.347 146.177 94.5245 144.824 94.8696C144.512 94.9639 144.512 94.7188 144.824 94.5303C145.882 93.959 147.107 93.6928 148.336 93.7669C148.336 93.5878 147.983 91.6368 148.097 91.6274C148.655 91.6789 149.203 91.7962 149.728 91.9761C149.406 89.0732 148.575 86.2363 148.294 83.3428C148.294 83.2391 148.45 83.2014 148.481 83.2957C149.485 86.309 150.15 89.4068 150.466 92.5416C150.559 92.9092 149.074 92.4003 148.783 92.2966Z" fill="#263238"/>
<path d="M131.192 89.7987C133.81 89.629 133.477 83.8232 133.477 83.8232C133.477 83.8232 137.467 83.1258 139.348 78.1682C139.348 78.1682 144.543 80.9957 148.835 80.2794C155.568 79.0919 155.277 71.1277 152.731 69.5349C149.115 67.2729 142.777 70.6942 142.777 70.6942C142.777 70.6942 133.093 68.3662 130.308 74.3228C129.058 74.4157 127.893 74.9353 127.049 75.7766C126.204 76.6179 125.743 77.7184 125.757 78.8562C125.508 83.1446 129.249 89.9212 131.192 89.7987Z" fill="#263238"/>
<path d="M132.553 84.5202C134.49 84.195 136.253 83.2928 137.561 81.9566C138.264 81.2342 138.764 80.3686 139.019 79.4333C139.274 78.4979 139.277 77.5206 139.026 76.5843C139.032 76.5677 139.044 76.5532 139.06 76.543C139.076 76.5328 139.095 76.5273 139.114 76.5273C139.134 76.5273 139.153 76.5328 139.169 76.543C139.184 76.5532 139.196 76.5677 139.203 76.5843C139.514 77.5646 139.582 78.5952 139.402 79.6022C139.222 80.6091 138.799 81.5676 138.164 82.409C137.528 83.2064 136.675 83.8397 135.687 84.2463C134.699 84.653 133.612 84.8188 132.532 84.7275C132.47 84.6804 132.438 84.539 132.553 84.5202Z" fill="#263238"/>
<path d="M142.517 70.9584C143.351 69.7086 144.659 68.7773 146.195 68.3382C148.063 67.8573 150.061 68.0184 151.806 68.7906C152.5 69.1207 153.086 69.6105 153.506 70.211C153.925 70.8116 154.163 71.5016 154.196 72.2119C154.217 73.8599 153.611 75.4641 152.481 76.7548C152.481 76.7548 152.388 76.7548 152.419 76.7548C153.321 75.5363 153.782 74.0935 153.739 72.6266C153.711 71.9286 153.465 71.2521 153.031 70.6751C152.598 70.0981 151.993 69.6441 151.287 69.3655C148.502 68.2817 144.45 68.5079 142.663 71.0809C142.611 71.1374 142.455 71.0432 142.517 70.9584Z" fill="#263238"/>
<path d="M132.729 89.5813C132.729 89.5813 129.477 85.0667 127.222 86.1129C124.967 87.1591 127.326 93.6529 129.893 94.5954C130.212 94.7369 130.56 94.8185 130.915 94.8351C131.27 94.8517 131.625 94.8031 131.959 94.6922C132.292 94.5813 132.598 94.4104 132.857 94.1897C133.116 93.969 133.324 93.703 133.467 93.4078L132.729 89.5813Z" fill="#F7AE9E"/>
<path d="M127.898 87.9507C127.898 87.9507 127.898 87.9978 127.898 88.0167C128.719 88.4173 129.439 88.97 130.01 89.6389C130.581 90.3079 130.99 91.0781 131.212 91.8998C131.113 91.7305 130.974 91.583 130.805 91.4675C130.636 91.3519 130.442 91.2711 130.235 91.2308C130.028 91.1904 129.814 91.1914 129.608 91.2337C129.402 91.276 129.208 91.3585 129.041 91.4756C129.041 91.4756 129.041 91.5699 129.041 91.5605C129.364 91.4773 129.707 91.4871 130.023 91.5883C130.34 91.6896 130.613 91.8775 130.807 92.126C131.13 92.5444 131.401 92.9931 131.618 93.4643C131.701 93.6151 131.992 93.5397 131.94 93.3701C132.085 91.2306 130.381 88.2334 127.898 87.9507Z" fill="#263238"/>
<path d="M34.7163 380.061H0.770752V374.406H34.7163C61.6068 374.406 69.2749 353.53 70.9685 336.018C72.2985 322.305 73.109 305.604 73.9714 287.95C77.2028 221.806 80.5485 153.408 109.891 153.408H136.782V159.063H109.87C86.4919 159.063 82.8552 233.7 80.1849 288.186C79.3121 305.933 78.4912 322.691 77.1612 336.536C74.4597 364.595 59.3832 380.061 34.7163 380.061Z" fill="#1D764A"/>
<path opacity="0.2" d="M136.782 153.38V159.035H115.336L114.006 153.38H136.782Z" fill="black"/>
<path d="M230.067 192.738H241.517V120.184H230.067V192.738Z" fill="#1D764A"/>
<path d="M230.067 123.625H186.552V188.544H230.067V123.625Z" fill="#1D764A"/>
<path opacity="0.2" d="M230.067 123.625V188.544H219.261L214.408 123.625H230.067Z" fill="black"/>
<path d="M120.635 161.985H152.918V150.42H120.635V161.985Z" fill="#1D764A"/>
<path d="M152.918 150.43H120.635V161.994H152.918V150.43Z" fill="#1D764A"/>
<path opacity="0.2" d="M141.582 161.985L142.642 150.43H152.918V161.985H141.582Z" fill="black"/>
<path d="M186.552 184.7H159.308C157.613 184.7 155.988 184.089 154.789 183.002C153.591 181.915 152.918 180.441 152.918 178.903V134.003C152.918 132.465 153.591 130.991 154.789 129.904C155.988 128.817 157.613 128.206 159.308 128.206H186.552V184.7Z" fill="#1D764A"/>
<path opacity="0.2" d="M172.234 184.699L177.086 128.215H186.552V184.699H172.234Z" fill="black"/>
<g opacity="0.2">
<path opacity="0.2" d="M174.738 173.276H176.889V139.629H174.738V173.276Z" fill="black"/>
<path opacity="0.2" d="M168.659 173.276H170.81V139.629H168.659V173.276Z" fill="black"/>
<path opacity="0.2" d="M162.571 173.276H164.721V139.629H162.571V173.276Z" fill="black"/>
</g>
<path d="M118.65 116.943C117.611 130.553 116.427 158.272 123.056 166.405C131.753 177.074 156.305 183.549 163.579 185.491C166.696 186.33 174.166 167.583 172.317 164.888C170.467 162.192 145.125 156.405 143.13 154.822C141.135 153.239 134.818 131.146 131.815 119.893C127.929 105.699 119.076 111.571 118.65 116.943Z" fill="#F7AE9E"/>
<path d="M191.04 172.089C195.041 172.956 201.109 171.09 201.306 173.87C201.483 176.34 197.15 177.254 197.15 177.254C197.15 177.254 202.407 177.659 201.763 180.364C201.119 183.069 196.132 183.192 196.132 183.192C196.132 183.192 200.953 183.785 200.09 186.443C199.228 189.101 194.604 189.469 194.604 189.469C194.604 189.469 195.82 190.289 194.282 191.919C192.09 194.257 184.775 193.983 181.003 193.022C177.231 192.061 164.171 185.991 162.186 185.02L168.805 162.966C168.805 162.966 176.4 161.872 180.328 161.74C184.255 161.608 197.316 164.436 196.765 167.395C196.215 170.355 187.019 168.244 184.64 168.168C182.26 168.093 181.845 168.573 182.884 169.365C183.559 169.921 189.264 171.703 191.04 172.089Z" fill="#F7AE9E"/>
<path d="M196.911 177.206C190.77 178.149 187.903 177.527 182.271 175.321C182.157 175.274 182.063 175.416 182.177 175.472C187.477 178.064 190.957 179.242 196.973 177.461C197.275 177.386 197.212 177.169 196.911 177.206Z" fill="#263238"/>
<path d="M196.371 183.096C189.897 183.521 186.791 182.927 180.702 181.023C180.619 181.023 180.556 181.127 180.64 181.164C186.448 183.473 189.939 184.595 196.35 183.398C196.641 183.351 196.672 183.078 196.371 183.096Z" fill="#263238"/>
<path d="M194.521 189.431C188.214 189.431 184.775 188.903 179.123 186.377C179.097 186.365 179.067 186.363 179.039 186.371C179.011 186.378 178.987 186.395 178.973 186.418C178.958 186.441 178.954 186.468 178.96 186.493C178.967 186.519 178.984 186.541 179.008 186.556C184.494 189.647 188.786 190.326 194.5 189.61C194.885 189.553 194.916 189.431 194.521 189.431Z" fill="#263238"/>
<path d="M144.408 181.07C144.408 181.07 124.594 172.041 121.549 165.123C117.809 156.49 116.281 131.316 117.736 118.403C119.191 105.491 129.103 107.093 132.283 118.507C135.4 129.647 142.434 151.9 143.161 152.946C144.086 154.294 155.391 156.829 155.391 156.829" fill="#AD6359"/>
<path d="M142.423 150.063C142.081 148.998 141.478 146.594 141.135 145.558C140.439 143.484 139.743 141.401 139.057 139.328C138.371 137.254 137.634 135.171 136.875 133.107C136.74 132.758 136.615 132.4 136.491 132.052C136.553 131.825 136.272 129.092 136.293 128.423C136.293 128.319 136.106 128.31 136.116 128.423C136.144 129.093 136.12 129.764 136.044 130.43C136.044 130.553 136.044 130.685 136.044 130.807C135.566 129.45 135.088 128.102 134.599 126.783C134.599 126.689 134.392 126.726 134.423 126.783C135.358 129.611 135.815 131.392 136.501 133.682C137.187 135.972 137.893 138.102 138.579 140.28C139.265 142.457 140.065 144.672 140.823 146.877C141.25 148.184 141.749 149.471 142.32 150.732C142.756 151.58 142.777 151.184 142.423 150.063Z" fill="#263238"/>
<path d="M120.074 157.669C119.669 155.341 119.263 152.956 118.952 150.656C118.318 145.944 117.913 141.307 117.684 136.594C117.549 133.899 117.331 131.222 117.165 128.536C117.165 128.508 117.152 128.482 117.131 128.463C117.11 128.443 117.081 128.432 117.05 128.432C117.02 128.432 116.991 128.443 116.969 128.463C116.948 128.482 116.936 128.508 116.936 128.536C116.936 130.93 116.842 133.314 116.936 135.708C116.936 136.057 116.936 136.406 116.936 136.754L116.811 136.264C116.427 134.898 115.886 133.559 115.554 132.174C115.545 132.158 115.53 132.145 115.511 132.139C115.493 132.132 115.473 132.131 115.454 132.137C115.435 132.143 115.419 132.154 115.409 132.17C115.399 132.185 115.395 132.203 115.398 132.221C115.772 133.597 115.97 135.048 116.323 136.396C116.51 137.084 116.697 137.772 116.905 138.46L117.009 138.753C117.071 140.129 117.144 141.505 117.248 142.881C117.529 147.603 118.13 152.306 119.045 156.962C119.673 160.006 120.58 162.998 121.757 165.906C121.763 165.92 121.774 165.933 121.788 165.942C121.801 165.95 121.818 165.955 121.835 165.955C121.852 165.955 121.869 165.95 121.882 165.942C121.896 165.933 121.907 165.92 121.913 165.906C121.3 163.578 120.489 159.997 120.074 157.669Z" fill="#263238"/>
<path d="M151.713 156.82C150.628 158.512 149.656 160.262 148.803 162.06C147.889 163.832 146.964 165.604 146.102 167.395C144.353 170.921 142.823 174.534 141.52 178.215C141.517 178.236 141.522 178.256 141.534 178.274C141.546 178.292 141.564 178.305 141.585 178.313C141.607 178.32 141.63 178.321 141.652 178.316C141.674 178.31 141.693 178.298 141.707 178.281C143.639 174.794 145.291 171.165 146.975 167.574C147.806 165.802 148.606 164.011 149.427 162.24C150.248 160.468 151.183 158.686 151.817 156.858C151.837 156.801 151.744 156.773 151.713 156.82Z" fill="#263238"/>
<path d="M260.698 108.045C260.56 108.045 260.428 107.995 260.331 107.907C260.233 107.818 260.179 107.699 260.179 107.574V94.3126C260.179 94.1876 260.233 94.0677 260.331 93.9793C260.428 93.891 260.56 93.8413 260.698 93.8413C260.836 93.8413 260.968 93.891 261.065 93.9793C261.163 94.0677 261.218 94.1876 261.218 94.3126V107.574C261.218 107.699 261.163 107.818 261.065 107.907C260.968 107.995 260.836 108.045 260.698 108.045Z" fill="#263238"/>
<path d="M234.244 114.397C234.152 114.398 234.061 114.376 233.981 114.335C233.901 114.293 233.834 114.234 233.787 114.162L226.513 102.673C226.471 102.619 226.441 102.559 226.426 102.494C226.41 102.43 226.41 102.363 226.425 102.298C226.44 102.234 226.47 102.173 226.513 102.119C226.555 102.066 226.61 102.021 226.672 101.988C226.735 101.955 226.805 101.934 226.877 101.927C226.95 101.92 227.023 101.927 227.092 101.947C227.161 101.967 227.225 102 227.279 102.044C227.334 102.088 227.377 102.141 227.407 102.201L234.68 113.691C234.715 113.744 234.739 113.802 234.748 113.864C234.758 113.925 234.754 113.987 234.736 114.047C234.719 114.107 234.688 114.163 234.647 114.212C234.605 114.26 234.553 114.301 234.493 114.331C234.418 114.374 234.332 114.396 234.244 114.397Z" fill="#263238"/>
<path d="M226.638 208.949C226.546 208.95 226.456 208.927 226.378 208.883C226.32 208.849 226.27 208.804 226.232 208.752C226.193 208.7 226.167 208.641 226.154 208.58C226.142 208.518 226.143 208.454 226.158 208.393C226.174 208.332 226.202 208.274 226.243 208.223L233.517 196.744C233.551 196.69 233.596 196.643 233.65 196.605C233.705 196.567 233.767 196.539 233.833 196.523C233.899 196.507 233.968 196.502 234.036 196.51C234.103 196.518 234.169 196.538 234.228 196.569C234.288 196.6 234.34 196.641 234.381 196.691C234.423 196.74 234.454 196.796 234.472 196.856C234.49 196.916 234.494 196.978 234.486 197.04C234.477 197.102 234.455 197.161 234.421 197.215L227.147 208.695C227.1 208.778 227.026 208.847 226.936 208.892C226.845 208.938 226.741 208.957 226.638 208.949Z" fill="#263238"/>
<path d="M260.365 217.225C260.228 217.225 260.096 217.175 259.998 217.087C259.901 216.998 259.846 216.878 259.846 216.753V203.511C259.846 203.386 259.901 203.266 259.998 203.178C260.096 203.09 260.228 203.04 260.365 203.04C260.502 203.042 260.633 203.093 260.73 203.181C260.827 203.269 260.882 203.387 260.885 203.511V216.772C260.88 216.894 260.823 217.009 260.726 217.093C260.629 217.178 260.5 217.225 260.365 217.225Z" fill="#263238"/>
<path d="M294.135 209.1C294.044 209.1 293.955 209.078 293.877 209.036C293.798 208.995 293.733 208.936 293.688 208.864L286.414 197.385C286.38 197.331 286.358 197.272 286.349 197.21C286.341 197.148 286.345 197.086 286.363 197.026C286.381 196.966 286.412 196.91 286.453 196.861C286.495 196.811 286.547 196.77 286.607 196.739C286.666 196.708 286.731 196.688 286.799 196.68C286.867 196.672 286.936 196.676 287.002 196.693C287.068 196.709 287.13 196.737 287.185 196.775C287.239 196.812 287.284 196.86 287.318 196.914L294.592 208.393C294.627 208.446 294.65 208.505 294.66 208.566C294.669 208.627 294.665 208.69 294.648 208.75C294.63 208.809 294.6 208.865 294.558 208.914C294.516 208.963 294.464 209.004 294.405 209.034C294.324 209.08 294.23 209.102 294.135 209.1Z" fill="#263238"/>
<path d="M287.11 114.548C287.019 114.549 286.929 114.526 286.851 114.482C286.791 114.452 286.739 114.411 286.697 114.362C286.656 114.313 286.625 114.258 286.608 114.198C286.59 114.138 286.586 114.076 286.596 114.014C286.605 113.953 286.628 113.894 286.664 113.841L293.937 102.352C294.013 102.258 294.124 102.192 294.25 102.168C294.376 102.144 294.507 102.163 294.618 102.222C294.729 102.281 294.813 102.375 294.852 102.486C294.891 102.597 294.883 102.717 294.831 102.824L287.557 114.313C287.51 114.383 287.445 114.441 287.367 114.482C287.289 114.523 287.201 114.546 287.11 114.548Z" fill="#263238"/>
</svg>
