<svg width="466" height="629" viewBox="0 0 466 629" fill="none" xmlns="http://www.w3.org/2000/svg">
<path d="M207.619 217.608H18.1309C8.65644 217.608 1 210.136 1 200.89V16.7181C1 7.47195 8.65644 0 18.1309 0H207.619C217.094 0 224.75 7.47195 224.75 16.7181V200.89C224.75 210.136 217.094 217.608 207.619 217.608Z" fill="#1D764A"/>
<path d="M16.7324 192.428V47.9706C16.7324 45.3646 17.7932 42.8653 19.6815 41.0225C21.5697 39.1798 24.1308 38.1445 26.8012 38.1445H198.949C201.619 38.1445 204.18 39.1798 206.068 41.0225C207.957 42.8653 209.018 45.3646 209.018 47.9706V192.428C209.018 195.034 207.957 197.534 206.068 199.376C204.18 201.219 201.619 202.254 198.949 202.254H26.8012C24.1308 202.254 21.5697 201.219 19.6815 199.376C17.7932 197.534 16.7324 195.034 16.7324 192.428Z" fill="#DBEEFE"/>
<path d="M25.0881 21.7676C28.1581 21.7676 30.6469 19.3388 30.6469 16.3428C30.6469 13.3467 28.1581 10.9179 25.0881 10.9179C22.018 10.9179 19.5293 13.3467 19.5293 16.3428C19.5293 19.3388 22.018 21.7676 25.0881 21.7676Z" fill="#CC584C"/>
<path d="M47.7078 16.3428C47.7078 19.3452 45.2256 21.7676 42.149 21.7676C39.0725 21.7676 36.5902 19.3452 36.5902 16.3428C36.5902 13.3403 39.0725 10.9179 42.149 10.9179C45.2256 10.9179 47.7078 13.3403 47.7078 16.3428Z" fill="#FFD464"/>
<path d="M59.2449 21.7676C62.3149 21.7676 64.8037 19.3388 64.8037 16.3428C64.8037 13.3467 62.3149 10.9179 59.2449 10.9179C56.1749 10.9179 53.6861 13.3467 53.6861 16.3428C53.6861 19.3388 56.1749 21.7676 59.2449 21.7676Z" fill="#32E922"/>
<path d="M204.018 21.7676H75.9213C74.6977 21.7676 73.7187 20.8123 73.7187 19.6181V13.0674C73.7187 11.8732 74.6977 10.9179 75.9213 10.9179H204.018C205.242 10.9179 206.221 11.8732 206.221 13.0674V19.584C206.221 20.8123 205.242 21.7676 204.018 21.7676Z" fill="#F1F8FF"/>
<path d="M112.875 171.616C141.973 171.616 165.561 148.596 165.561 120.199C165.561 91.8029 141.973 68.7829 112.875 68.7829C83.7772 68.7829 60.1889 91.8029 60.1889 120.199C60.1889 148.596 83.7772 171.616 112.875 171.616Z" fill="#D85446"/>
<path d="M88.0877 144.39C85.7453 142.104 85.7453 138.419 88.0877 136.133L129.202 96.0095C131.544 93.7235 135.32 93.7235 137.662 96.0095C140.005 98.2954 140.005 101.98 137.662 104.266L96.5482 144.39C94.2059 146.675 90.4301 146.675 88.0877 144.39Z" fill="#E9E9E9"/>
<path d="M137.662 144.39C135.32 146.675 131.544 146.675 129.202 144.39L88.0877 104.266C85.7453 101.98 85.7453 98.2954 88.0877 96.0095C90.4301 93.7235 94.2059 93.7235 96.5482 96.0095L137.662 136.133C140.005 138.419 140.005 142.104 137.662 144.39Z" fill="#E9E9E9"/>
<path d="M458.01 424.689V590.629C458.01 598.585 454.849 606.216 449.223 611.842C443.597 617.468 435.967 620.629 428.01 620.629H37.99C30.0335 620.629 22.4029 617.468 16.7768 611.842C11.1507 606.216 7.99 598.585 7.99 590.629V424.689C7.99 416.732 11.1507 409.101 16.7768 403.475C22.4029 397.849 30.0335 394.689 37.99 394.689H428.01C435.967 394.689 443.597 397.849 449.223 403.475C454.849 409.101 458.01 416.732 458.01 424.689ZM429.74 579.449V549.449H396.26V579.449H429.74ZM429.74 524.449V494.449H396.26V524.449H429.74ZM429.74 469.449V439.449H396.26V469.449H429.74ZM369.74 579.449V549.449H336.26V579.449H369.74ZM369.74 524.449V494.449H336.26V524.449H369.74ZM369.74 469.449V439.449H336.26V469.449H369.74ZM309.74 579.449V549.449H156.26V579.449H309.74ZM309.74 524.449V494.449H276.26V524.449H309.74ZM309.74 469.449V439.449H276.26V469.449H309.74ZM249.74 524.449V494.449H216.26V524.449H249.74ZM249.74 469.449V439.449H216.26V469.449H249.74ZM189.74 524.449V494.449H156.26V524.449H189.74ZM189.74 469.449V439.449H156.26V469.449H189.74ZM129.74 579.449V549.449H96.26V579.449H129.74ZM129.74 524.449V494.449H96.26V524.449H129.74ZM129.74 469.449V439.449H96.26V469.449H129.74ZM69.74 579.449V549.449H36.26V579.449H69.74ZM69.74 524.449V494.449H36.26V524.449H69.74ZM69.74 469.449V439.449H36.26V469.449H69.74Z" fill="#DBEEFE"/>
<path d="M429.74 549.449H396.26V579.449H429.74V549.449Z" fill="#DBEEFE"/>
<path d="M429.74 494.449H396.26V524.449H429.74V494.449Z" fill="#DBEEFE"/>
<path d="M429.74 439.449H396.26V469.449H429.74V439.449Z" fill="#DBEEFE"/>
<path d="M369.74 549.449H336.26V579.449H369.74V549.449Z" fill="#DBEEFE"/>
<path d="M369.74 494.449H336.26V524.449H369.74V494.449Z" fill="#DBEEFE"/>
<path d="M369.74 439.449H336.26V469.449H369.74V439.449Z" fill="#DBEEFE"/>
<path d="M309.74 549.449H156.26V579.449H309.74V549.449Z" fill="#F1F8FF"/>
<path d="M309.74 494.449H276.26V524.449H309.74V494.449Z" fill="#DBEEFE"/>
<path d="M309.74 439.449H276.26V469.449H309.74V439.449Z" fill="#DBEEFE"/>
<path d="M288.25 382.759V394.689H177.75V382.759C177.75 374.802 180.911 367.171 186.537 361.545C192.163 355.919 199.794 352.759 207.75 352.759H258.25C266.206 352.759 273.837 355.919 279.463 361.545C285.089 367.171 288.25 374.802 288.25 382.759Z" fill="#F1F8FF"/>
<path d="M249.74 494.449H216.26V524.449H249.74V494.449Z" fill="#DBEEFE"/>
<path d="M249.74 439.449H216.26V469.449H249.74V439.449Z" fill="#DBEEFE"/>
<path d="M189.74 494.449H156.26V524.449H189.74V494.449Z" fill="#DBEEFE"/>
<path d="M189.74 439.449H156.26V469.449H189.74V439.449Z" fill="#DBEEFE"/>
<path d="M129.74 549.449H96.26V579.449H129.74V549.449Z" fill="#DBEEFE"/>
<path d="M129.74 494.449H96.26V524.449H129.74V494.449Z" fill="#DBEEFE"/>
<path d="M129.74 439.449H96.26V469.449H129.74V439.449Z" fill="#DBEEFE"/>
<path d="M69.74 549.449H36.26V579.449H69.74V549.449Z" fill="#DBEEFE"/>
<path d="M69.74 494.449H36.26V524.449H69.74V494.449Z" fill="#DBEEFE"/>
<path d="M37.99 628.899H428.01C438.111 628.825 447.774 624.761 454.891 617.592C462.008 610.423 466.001 600.73 466 590.629V424.689C465.991 419.711 465.001 414.785 463.087 410.191C461.172 405.597 458.37 401.425 454.842 397.915C451.313 394.405 447.127 391.626 442.523 389.735C437.919 387.845 432.987 386.881 428.01 386.899H296V382.759C296.02 377.79 295.057 372.867 293.169 368.272C291.28 363.677 288.502 359.501 284.994 355.983C281.486 352.465 277.317 349.674 272.728 347.772C268.138 345.87 263.218 344.893 258.25 344.899H239V309.219C239 281.638 216.741 258.899 189.16 258.899H161.33C156.87 258.91 152.452 258.043 148.328 256.346C144.204 254.65 140.454 252.157 137.294 249.011C134.134 245.864 131.624 242.126 129.91 238.009C128.195 233.892 127.308 229.478 127.3 225.019C127.305 222.897 126.467 220.86 124.97 219.356C123.473 217.852 121.44 217.005 119.318 217C117.197 216.995 115.16 217.833 113.656 219.33C112.152 220.827 111.305 222.86 111.3 224.982C111.319 238.234 116.6 250.936 125.982 260.297C135.363 269.657 148.078 274.909 161.33 274.899H189.16C207.919 274.899 223 290.46 223 309.219V344.899H207.75C202.782 344.893 197.862 345.87 193.272 347.772C188.683 349.674 184.514 352.465 181.006 355.983C177.498 359.501 174.72 363.677 172.831 368.272C170.943 372.867 169.98 377.79 170 382.759V386.899H37.99C33.013 386.881 28.0813 387.845 23.4772 389.735C18.8732 391.626 14.687 394.405 11.1584 397.915C7.62985 401.425 4.82804 405.597 2.91334 410.191C0.998645 414.785 0.00864626 419.711 2.09623e-07 424.689V590.629C-0.00105639 600.73 3.99224 610.423 11.109 617.592C18.2257 624.761 27.8885 628.825 37.99 628.899ZM186 382.759C185.978 379.891 186.525 377.047 187.608 374.392C188.692 371.737 190.292 369.324 192.314 367.291C194.337 365.258 196.743 363.646 199.392 362.549C202.042 361.452 204.882 360.891 207.75 360.899H258.25C261.118 360.891 263.958 361.452 266.608 362.549C269.257 363.646 271.663 365.258 273.686 367.291C275.708 369.324 277.308 371.737 278.392 374.392C279.475 377.047 280.022 379.891 280 382.759V386.899H186V382.759ZM450 590.899C450 596.733 447.682 602.329 443.556 606.455C439.431 610.581 433.835 612.899 428 612.899H38C32.1652 612.899 26.5694 610.581 22.4436 606.455C18.3178 602.329 16 596.733 16 590.899V424.899C16 419.064 18.3178 413.468 22.4436 409.342C26.5694 405.216 32.1652 402.899 38 402.899H428C433.835 402.899 439.431 405.216 443.556 409.342C447.682 413.468 450 419.064 450 424.899V590.899Z" fill="#1D764A"/>
<path d="M257 439.899C257 437.777 256.157 435.742 254.657 434.242C253.157 432.741 251.122 431.899 249 431.899H216C213.878 431.899 211.843 432.741 210.343 434.242C208.843 435.742 208 437.777 208 439.899V469.899C208 472.02 208.843 474.055 210.343 475.555C211.843 477.056 213.878 477.899 216 477.899H249C251.122 477.899 253.157 477.056 254.657 475.555C256.157 474.055 257 472.02 257 469.899V439.899ZM224 447.899H242V461.899H224V447.899ZM197 439.899C197 437.777 196.157 435.742 194.657 434.242C193.157 432.741 191.122 431.899 189 431.899H156C153.878 431.899 151.843 432.741 150.343 434.242C148.843 435.742 148 437.777 148 439.899V469.899C148 472.02 148.843 474.055 150.343 475.555C151.843 477.056 153.878 477.899 156 477.899H189C191.122 477.899 193.157 477.056 194.657 475.555C196.157 474.055 197 472.02 197 469.899V439.899ZM164 447.899H182V461.899H164V447.899ZM137 439.899C137 437.777 136.157 435.742 134.657 434.242C133.157 432.741 131.122 431.899 129 431.899H96C93.8783 431.899 91.8434 432.741 90.3431 434.242C88.8429 435.742 88 437.777 88 439.899V469.899C88 472.02 88.8429 474.055 90.3431 475.555C91.8434 477.056 93.8783 477.899 96 477.899H129C131.122 477.899 133.157 477.056 134.657 475.555C136.157 474.055 137 472.02 137 469.899V439.899ZM104 447.899H122V461.899H104V447.899ZM77 439.899C77 437.777 76.1571 435.742 74.6569 434.242C73.1566 432.741 71.1217 431.899 69 431.899H36C33.8783 431.899 31.8434 432.741 30.3431 434.242C28.8429 435.742 28 437.777 28 439.899V469.899C28 472.02 28.8429 474.055 30.3431 475.555C31.8434 477.056 33.8783 477.899 36 477.899H69C71.1217 477.899 73.1566 477.056 74.6569 475.555C76.1571 474.055 77 472.02 77 469.899V439.899ZM44 447.899H62V461.899H44V447.899ZM377 439.899C377 437.777 376.157 435.742 374.657 434.242C373.157 432.741 371.122 431.899 369 431.899H336C333.878 431.899 331.843 432.741 330.343 434.242C328.843 435.742 328 437.777 328 439.899V469.899C328 472.02 328.843 474.055 330.343 475.555C331.843 477.056 333.878 477.899 336 477.899H369C371.122 477.899 373.157 477.056 374.657 475.555C376.157 474.055 377 472.02 377 469.899V439.899ZM344 447.899H362V461.899H344V447.899ZM317 439.899C317 437.777 316.157 435.742 314.657 434.242C313.157 432.741 311.122 431.899 309 431.899H276C273.878 431.899 271.843 432.741 270.343 434.242C268.843 435.742 268 437.777 268 439.899V469.899C268 472.02 268.843 474.055 270.343 475.555C271.843 477.056 273.878 477.899 276 477.899H309C311.122 477.899 313.157 477.056 314.657 475.555C316.157 474.055 317 472.02 317 469.899V439.899ZM284 447.899H302V461.899H284V447.899ZM437 439.899C437 437.777 436.157 435.742 434.657 434.242C433.157 432.741 431.122 431.899 429 431.899H396C393.878 431.899 391.843 432.741 390.343 434.242C388.843 435.742 388 437.777 388 439.899V469.899C388 472.02 388.843 474.055 390.343 475.555C391.843 477.056 393.878 477.899 396 477.899H429C431.122 477.899 433.157 477.056 434.657 475.555C436.157 474.055 437 472.02 437 469.899V439.899ZM404 447.899H422V461.899H404V447.899ZM257 494.899C257 492.777 256.157 490.742 254.657 489.242C253.157 487.741 251.122 486.899 249 486.899H216C213.878 486.899 211.843 487.741 210.343 489.242C208.843 490.742 208 492.777 208 494.899V524.899C208 527.02 208.843 529.055 210.343 530.555C211.843 532.056 213.878 532.899 216 532.899H249C251.122 532.899 253.157 532.056 254.657 530.555C256.157 529.055 257 527.02 257 524.899V494.899ZM224 502.899H242V516.899H224V502.899ZM197 494.899C197 492.777 196.157 490.742 194.657 489.242C193.157 487.741 191.122 486.899 189 486.899H156C153.878 486.899 151.843 487.741 150.343 489.242C148.843 490.742 148 492.777 148 494.899V524.899C148 527.02 148.843 529.055 150.343 530.555C151.843 532.056 153.878 532.899 156 532.899H189C191.122 532.899 193.157 532.056 194.657 530.555C196.157 529.055 197 527.02 197 524.899V494.899ZM164 502.899H182V516.899H164V502.899ZM137 494.899C137 492.777 136.157 490.742 134.657 489.242C133.157 487.741 131.122 486.899 129 486.899H96C93.8783 486.899 91.8434 487.741 90.3431 489.242C88.8429 490.742 88 492.777 88 494.899V524.899C88 527.02 88.8429 529.055 90.3431 530.555C91.8434 532.056 93.8783 532.899 96 532.899H129C131.122 532.899 133.157 532.056 134.657 530.555C136.157 529.055 137 527.02 137 524.899V494.899ZM104 502.899H122V516.899H104V502.899ZM77 494.899C77 492.777 76.1571 490.742 74.6569 489.242C73.1566 487.741 71.1217 486.899 69 486.899H36C33.8783 486.899 31.8434 487.741 30.3431 489.242C28.8429 490.742 28 492.777 28 494.899V524.899C28 527.02 28.8429 529.055 30.3431 530.555C31.8434 532.056 33.8783 532.899 36 532.899H69C71.1217 532.899 73.1566 532.056 74.6569 530.555C76.1571 529.055 77 527.02 77 524.899V494.899ZM44 502.899H62V516.899H44V502.899ZM377 494.899C377 492.777 376.157 490.742 374.657 489.242C373.157 487.741 371.122 486.899 369 486.899H336C333.878 486.899 331.843 487.741 330.343 489.242C328.843 490.742 328 492.777 328 494.899V524.899C328 527.02 328.843 529.055 330.343 530.555C331.843 532.056 333.878 532.899 336 532.899H369C371.122 532.899 373.157 532.056 374.657 530.555C376.157 529.055 377 527.02 377 524.899V494.899ZM344 502.899H362V516.899H344V502.899ZM317 494.899C317 492.777 316.157 490.742 314.657 489.242C313.157 487.741 311.122 486.899 309 486.899H276C273.878 486.899 271.843 487.741 270.343 489.242C268.843 490.742 268 492.777 268 494.899V524.899C268 527.02 268.843 529.055 270.343 530.555C271.843 532.056 273.878 532.899 276 532.899H309C311.122 532.899 313.157 532.056 314.657 530.555C316.157 529.055 317 527.02 317 524.899V494.899ZM284 502.899H302V516.899H284V502.899ZM437 494.899C437 492.777 436.157 490.742 434.657 489.242C433.157 487.741 431.122 486.899 429 486.899H396C393.878 486.899 391.843 487.741 390.343 489.242C388.843 490.742 388 492.777 388 494.899V524.899C388 527.02 388.843 529.055 390.343 530.555C391.843 532.056 393.878 532.899 396 532.899H429C431.122 532.899 433.157 532.056 434.657 530.555C436.157 529.055 437 527.02 437 524.899V494.899ZM404 502.899H422V516.899H404V502.899ZM137 549.899C137 547.777 136.157 545.742 134.657 544.242C133.157 542.741 131.122 541.899 129 541.899H96C93.8783 541.899 91.8434 542.741 90.3431 544.242C88.8429 545.742 88 547.777 88 549.899V579.899C88 582.02 88.8429 584.055 90.3431 585.555C91.8434 587.056 93.8783 587.899 96 587.899H129C131.122 587.899 133.157 587.056 134.657 585.555C136.157 584.055 137 582.02 137 579.899V549.899ZM104 557.899H122V571.899H104V557.899ZM77 549.899C77 547.777 76.1571 545.742 74.6569 544.242C73.1566 542.741 71.1217 541.899 69 541.899H36C33.8783 541.899 31.8434 542.741 30.3431 544.242C28.8429 545.742 28 547.777 28 549.899V579.899C28 582.02 28.8429 584.055 30.3431 585.555C31.8434 587.056 33.8783 587.899 36 587.899H69C71.1217 587.899 73.1566 587.056 74.6569 585.555C76.1571 584.055 77 582.02 77 579.899V549.899ZM44 557.899H62V571.899H44V557.899ZM377 549.899C377 547.777 376.157 545.742 374.657 544.242C373.157 542.741 371.122 541.899 369 541.899H336C333.878 541.899 331.843 542.741 330.343 544.242C328.843 545.742 328 547.777 328 549.899V579.899C328 582.02 328.843 584.055 330.343 585.555C331.843 587.056 333.878 587.899 336 587.899H369C371.122 587.899 373.157 587.056 374.657 585.555C376.157 584.055 377 582.02 377 579.899V549.899ZM344 557.899H362V571.899H344V557.899ZM317 549.899C317 547.777 316.157 545.742 314.657 544.242C313.157 542.741 311.122 541.899 309 541.899H156C153.878 541.899 151.843 542.741 150.343 544.242C148.843 545.742 148 547.777 148 549.899V579.899C148 582.02 148.843 584.055 150.343 585.555C151.843 587.056 153.878 587.899 156 587.899H309C311.122 587.899 313.157 587.056 314.657 585.555C316.157 584.055 317 582.02 317 579.899V549.899ZM164 557.899H302V571.899H164V557.899ZM437 549.899C437 547.777 436.157 545.742 434.657 544.242C433.157 542.741 431.122 541.899 429 541.899H396C393.878 541.899 391.843 542.741 390.343 544.242C388.843 545.742 388 547.777 388 549.899V579.899C388 582.02 388.843 584.055 390.343 585.555C391.843 587.056 393.878 587.899 396 587.899H429C431.122 587.899 433.157 587.056 434.657 585.555C436.157 584.055 437 582.02 437 579.899V549.899ZM404 557.899H422V571.899H404V557.899Z" fill="#1D764A"/>
</svg>
