<svg width="32" height="32" viewBox="0 0 32 32" fill="none" xmlns="http://www.w3.org/2000/svg">
<g opacity="0.6">
<path d="M16.0001 5.97339C14.9927 5.97339 14.008 6.27211 13.1704 6.83177C12.3328 7.39143 11.6799 8.1869 11.2944 9.11759C10.9089 10.0483 10.8081 11.0724 11.0046 12.0604C11.2011 13.0484 11.6862 13.9559 12.3985 14.6683C13.1109 15.3806 14.0184 15.8657 15.0064 16.0622C15.9944 16.2587 17.0185 16.1579 17.9492 15.7724C18.8799 15.3868 19.6754 14.734 20.235 13.8964C20.7947 13.0588 21.0934 12.0741 21.0934 11.0667C21.0934 9.71589 20.5568 8.42038 19.6016 7.46519C18.6464 6.51001 17.3509 5.97339 16.0001 5.97339ZM16.0001 14.3823C15.3443 14.3823 14.7033 14.1878 14.158 13.8235C13.6128 13.4592 13.1878 12.9414 12.9369 12.3355C12.686 11.7297 12.6203 11.063 12.7482 10.4199C12.8762 9.77674 13.1919 9.18596 13.6556 8.72227C14.1193 8.25858 14.7101 7.94281 15.3532 7.81487C15.9964 7.68694 16.663 7.7526 17.2689 8.00355C17.8747 8.25449 18.3925 8.67946 18.7569 9.2247C19.1212 9.76994 19.3156 10.411 19.3156 11.0667C19.3133 11.9445 18.9629 12.7856 18.3414 13.4054C17.7199 14.0253 16.8779 14.3734 16.0001 14.3734V14.3823Z" fill="#black" fill-opacity="0.3"/>
<path d="M15.9999 1.77783C13.2312 1.78014 10.5759 2.878 8.61397 4.83161C6.65203 6.78521 5.5429 9.43582 5.52881 12.2045C5.52881 16.3556 7.8577 19.8312 9.56436 22.3645L9.87547 22.8267C11.5735 25.2877 13.3951 27.6611 15.3333 29.9378L16.0088 30.7289L16.6844 29.9378C18.6223 27.6609 20.4439 25.2875 22.1421 22.8267L22.4533 22.3556C24.151 19.8223 26.4799 16.3556 26.4799 12.2045C26.4658 9.43428 25.3555 6.78233 23.3916 4.82847C21.4277 2.87461 18.7702 1.7778 15.9999 1.77783ZM20.9688 21.3334L20.6488 21.8045C19.1199 24.0978 17.0933 26.6667 15.9999 27.9378C14.951 26.6667 12.8799 24.0978 11.351 21.8045L11.0399 21.3334C9.46659 18.9867 7.30659 15.7778 7.30659 12.1689C7.30659 11.0273 7.53145 9.89687 7.96833 8.84215C8.40521 7.78743 9.04555 6.82908 9.8528 6.02183C10.6601 5.21458 11.6184 4.57423 12.6731 4.13735C13.7278 3.70047 14.8583 3.47561 15.9999 3.47561C17.1415 3.47561 18.272 3.70047 19.3267 4.13735C20.3814 4.57423 21.3398 5.21458 22.147 6.02183C22.9543 6.82908 23.5946 7.78743 24.0315 8.84215C24.4684 9.89687 24.6933 11.0273 24.6933 12.1689C24.6933 15.8134 22.5421 19.0223 20.9688 21.3334Z" fill="#black"/>
</g>
</svg>
