<svg width="20" height="20" viewBox="0 0 20 20" fill="none" xmlns="http://www.w3.org/2000/svg">
<g clip-path="url(#clip0_497_319)">
<path d="M10 6.42875V4.28589" stroke="#222222" stroke-width="2" stroke-linecap="round" stroke-linejoin="round"/>
<path d="M7.85645 12.143C7.85645 13.2144 8.81359 13.5716 9.9993 13.5716C11.185 13.5716 12.1422 13.5716 12.1422 12.143C12.1422 10.0001 7.85645 10.0001 7.85645 7.85728C7.85645 6.42871 8.81359 6.42871 9.9993 6.42871C11.185 6.42871 12.1422 6.97157 12.1422 7.85728" stroke="#222222" stroke-width="2" stroke-linecap="round" stroke-linejoin="round"/>
<path d="M9.99902 13.5715V15.7144" stroke="#222222" stroke-width="2" stroke-linecap="round" stroke-linejoin="round"/>
<path d="M9.99958 19.2858C15.1279 19.2858 19.2853 15.1284 19.2853 10.0001C19.2853 4.87171 15.1279 0.714355 9.99958 0.714355C4.87122 0.714355 0.713867 4.87171 0.713867 10.0001C0.713867 15.1284 4.87122 19.2858 9.99958 19.2858Z" stroke="#222222" stroke-width="2" stroke-linecap="round" stroke-linejoin="round"/>
</g>
<defs>
<clipPath id="clip0_497_319">
<rect width="20" height="20" fill="white"/>
</clipPath>
</defs>
</svg>
